<?xml version="1.0" encoding="us-ascii" standalone="no"?><svg xmlns="http://www.w3.org/2000/svg" xmlns:xlink="http://www.w3.org/1999/xlink" contentStyleType="text/css" height="630px" preserveAspectRatio="none" style="width:1049px;height:630px;background:#FFFFFF;" version="1.1" viewBox="0 0 1049 630" width="1049px" zoomAndPan="magnify"><defs/><g><!--cluster SelfCheckout--><g id="cluster_SelfCheckout"><path d="M115.5,7 L1023.5,7 A12.5,12.5 0 0 1 1036,19.5 L1036,29.6094 L103,29.6094 L103,19.5 A12.5,12.5 0 0 1 115.5,7 " fill="#F1F1F1" style="stroke:#F1F1F1;stroke-width:1.0;"/><rect fill="none" height="617.36" rx="12.5" ry="12.5" style="stroke:#181818;stroke-width:0.5;" width="933" x="103" y="7"/><line style="stroke:#181818;stroke-width:0.5;" x1="103" x2="1036" y1="29.6094" y2="29.6094"/><text fill="#000000" font-family="sans-serif" font-size="14" lengthAdjust="spacing" textLength="84" x="527.5" y="25.5332">SelfCheckout</text></g><!--cluster Dashboard--><g id="cluster_Dashboard"><path d="M163.5,271 L983.5,271 A12.5,12.5 0 0 1 996,283.5 L996,293.6094 L151,293.6094 L151,283.5 A12.5,12.5 0 0 1 163.5,271 " fill="#F1F1F1" style="stroke:#F1F1F1;stroke-width:1.0;"/><rect fill="none" height="313.36" rx="12.5" ry="12.5" style="stroke:#181818;stroke-width:0.5;" width="845" x="151" y="271"/><line style="stroke:#181818;stroke-width:0.5;" x1="151" x2="996" y1="293.6094" y2="293.6094"/><text fill="#000000" font-family="sans-serif" font-size="14" lengthAdjust="spacing" textLength="70" x="538.5" y="289.5332">Dashboard</text></g><ellipse cx="576" cy="61" fill="#222222" rx="10" ry="10" style="stroke:#222222;stroke-width:1.0;"/><g id="SelfCheckout.Login"><rect fill="#F1F1F1" height="50" rx="12.5" ry="12.5" style="stroke:#181818;stroke-width:0.5;" width="55" x="548.5" y="149"/><line style="stroke:#181818;stroke-width:0.5;" x1="548.5" x2="603.5" y1="176.6094" y2="176.6094"/><text fill="#000000" font-family="sans-serif" font-size="14" lengthAdjust="spacing" textLength="35" x="558.5" y="168.5332">Login</text></g><ellipse cx="962" cy="473.86" fill="#222222" rx="10" ry="10" style="stroke:#222222;stroke-width:1.0;"/><path d="M188,387.36 L414,387.36 A12.5,12.5 0 0 1 426.5,399.86 L426.5,414.9694 L175.5,414.9694 L175.5,399.86 A12.5,12.5 0 0 1 188,387.36 " fill="#F1F1F1" style="stroke:#F1F1F1;stroke-width:1.0;"/><rect fill="none" height="172.6094" rx="12.5" ry="12.5" style="stroke:#181818;stroke-width:0.5;" width="251" x="175.5" y="387.36"/><line style="stroke:#181818;stroke-width:0.5;" x1="175.5" x2="426.5" y1="414.9694" y2="414.9694"/><text fill="#000000" font-family="sans-serif" font-size="14" lengthAdjust="spacing" textLength="37" x="282.5" y="406.8932">Labor</text><ellipse cx="308.5" cy="435.9694" fill="#222222" rx="10" ry="10" style="stroke:#222222;stroke-width:1.0;"/><g id="SelfCheckout.Dashboard.Labor.Laborbestellung"><rect fill="#F1F1F1" height="50" rx="12.5" ry="12.5" style="stroke:#181818;stroke-width:0.5;" width="122" x="187.5" y="499.9694"/><line style="stroke:#181818;stroke-width:0.5;" x1="187.5" x2="309.5" y1="527.5788" y2="527.5788"/><text fill="#000000" font-family="sans-serif" font-size="14" lengthAdjust="spacing" textLength="102" x="197.5" y="519.5026">Laborbestellung</text></g><g id="SelfCheckout.Dashboard.Labor.Laborliste"><rect fill="#F1F1F1" height="50" rx="12.5" ry="12.5" style="stroke:#181818;stroke-width:0.5;" width="82" x="327.5" y="499.9694"/><line style="stroke:#181818;stroke-width:0.5;" x1="327.5" x2="409.5" y1="527.5788" y2="527.5788"/><text fill="#000000" font-family="sans-serif" font-size="14" lengthAdjust="spacing" textLength="62" x="337.5" y="519.5026">Laborliste</text></g><!--link *start*Labor to Laborbestellung--><g id="link_*start*Labor_Laborbestellung"><path d="M302.44,444.4094 C298.15,449.7594 292.32,457.1994 287.5,463.9694 C279.29,475.5094 273.8772,483.6112 266.8272,494.6612 " fill="none" id="*start*Labor-to-Laborbestellung" style="stroke:#181818;stroke-width:1.0;"/><polygon fill="#181818" points="263.6,499.7194,271.8129,494.2835,266.2893,495.5042,265.0686,489.9806,263.6,499.7194" style="stroke:#181818;stroke-width:1.0;"/><text fill="#000000" font-family="sans-serif" font-size="13" lengthAdjust="spacing" textLength="57" x="288.5" y="478.4645">/labor/neu</text></g><!--link *start*Labor to Laborliste--><g id="link_*start*Labor_Laborliste"><path d="M317.21,441.1694 C325.76,445.7094 338.64,453.6794 346.5,463.9694 C354.51,474.4594 358.1504,482.4093 361.5504,494.0693 " fill="none" id="*start*Labor-to-Laborliste" style="stroke:#181818;stroke-width:1.0;"/><polygon fill="#181818" points="363.23,499.8294,364.5506,490.0695,361.8303,495.0293,356.8705,492.309,363.23,499.8294" style="stroke:#181818;stroke-width:1.0;"/><text fill="#000000" font-family="sans-serif" font-size="13" lengthAdjust="spacing" textLength="60" x="356.5" y="478.4645">/labor/liste</text></g><g id="SelfCheckout.Dashboard.Kasse"><rect fill="#F1F1F1" height="50" rx="12.5" ry="12.5" style="stroke:#181818;stroke-width:0.5;" width="59" x="461.5" y="448.86"/><line style="stroke:#181818;stroke-width:0.5;" x1="461.5" x2="520.5" y1="476.4694" y2="476.4694"/><text fill="#000000" font-family="sans-serif" font-size="14" lengthAdjust="spacing" textLength="39" x="471.5" y="468.3932">Kasse</text></g><path d="M568,387.36 L798,387.36 A12.5,12.5 0 0 1 810.5,399.86 L810.5,414.9694 L555.5,414.9694 L555.5,399.86 A12.5,12.5 0 0 1 568,387.36 " fill="#F1F1F1" style="stroke:#F1F1F1;stroke-width:1.0;"/><rect fill="none" height="172.6094" rx="12.5" ry="12.5" style="stroke:#181818;stroke-width:0.5;" width="255" x="555.5" y="387.36"/><line style="stroke:#181818;stroke-width:0.5;" x1="555.5" x2="810.5" y1="414.9694" y2="414.9694"/><text fill="#000000" font-family="sans-serif" font-size="14" lengthAdjust="spacing" textLength="70" x="648" y="406.8932">Verwaltung</text><ellipse cx="666.5" cy="435.9694" fill="#222222" rx="10" ry="10" style="stroke:#222222;stroke-width:1.0;"/><g id="SelfCheckout.Dashboard.Verwaltung.Berichte"><rect fill="#F1F1F1" height="50" rx="12.5" ry="12.5" style="stroke:#181818;stroke-width:0.5;" width="72" x="567.5" y="499.9694"/><line style="stroke:#181818;stroke-width:0.5;" x1="567.5" x2="639.5" y1="527.5788" y2="527.5788"/><text fill="#000000" font-family="sans-serif" font-size="14" lengthAdjust="spacing" textLength="52" x="577.5" y="519.5026">Berichte</text></g><g id="SelfCheckout.Dashboard.Verwaltung.Benutzerverwaltung"><rect fill="#F1F1F1" height="50" rx="12.5" ry="12.5" style="stroke:#181818;stroke-width:0.5;" width="144" x="657.5" y="499.9694"/><line style="stroke:#181818;stroke-width:0.5;" x1="657.5" x2="801.5" y1="527.5788" y2="527.5788"/><text fill="#000000" font-family="sans-serif" font-size="14" lengthAdjust="spacing" textLength="124" x="667.5" y="519.5026">Benutzerverwaltung</text></g><!--link *start*Verwaltung to Berichte--><g id="link_*start*Verwaltung_Berichte"><path d="M660.91,444.6894 C652.06,456.9194 637.9579,476.3789 624.5679,494.8789 " fill="none" id="*start*Verwaltung-to-Berichte" style="stroke:#181818;stroke-width:1.0;"/><polygon fill="#181818" points="621.05,499.7394,629.5672,494.794,623.9816,495.689,623.0866,490.1034,621.05,499.7394" style="stroke:#181818;stroke-width:1.0;"/><text fill="#000000" font-family="sans-serif" font-size="13" lengthAdjust="spacing" textLength="37" x="647.5" y="478.4645">/report</text></g><!--link *start*Verwaltung to Benutzerverwaltung--><g id="link_*start*Verwaltung_Benutzerverwaltung"><path d="M672.79,443.8894 C677.55,449.2394 684.16,456.8894 689.5,463.9694 C698.18,475.4594 703.8636,483.6964 711.0936,494.8364 " fill="none" id="*start*Verwaltung-to-Benutzerverwaltung" style="stroke:#181818;stroke-width:1.0;"/><polygon fill="#181818" points="714.36,499.8694,712.8156,490.1424,711.638,495.6753,706.1051,494.4976,714.36,499.8694" style="stroke:#181818;stroke-width:1.0;"/><text fill="#000000" font-family="sans-serif" font-size="13" lengthAdjust="spacing" textLength="54" x="702.5" y="478.4645">/benutzer</text></g><g id="SelfCheckout.Dashboard.Inventar"><rect fill="#F1F1F1" height="50" rx="12.5" ry="12.5" style="stroke:#181818;stroke-width:0.5;" width="71" x="845.5" y="448.86"/><line style="stroke:#181818;stroke-width:0.5;" x1="845.5" x2="916.5" y1="476.4694" y2="476.4694"/><text fill="#000000" font-family="sans-serif" font-size="14" lengthAdjust="spacing" textLength="51" x="855.5" y="468.3932">Inventar</text></g><ellipse cx="16" cy="299.36" fill="#222222" rx="10" ry="10" style="stroke:#222222;stroke-width:1.0;"/><!--link *start* to SelfCheckout--><g id="link_*start*_SelfCheckout"><path d="M20.58,308.68 C29.92,325.64 51.97,365.6775 71.9563,401.9675 C81.9494,420.1125 91.4266,437.3206 98.5411,450.2388 C99.4304,451.8535 100.2828,453.4013 101.0947,454.8754 C101.5006,455.6125 101.8964,456.3312 102.2817,457.0306 C102.4743,457.3804 99.7697,452.4696 99.957,452.8097 " fill="none" id="*start*-to-SelfCheckout" style="stroke:#181818;stroke-width:1.0;"/><polygon fill="#181818" points="102.8515,458.0653,102.0135,448.2522,100.4394,453.6856,95.006,452.1115,102.8515,458.0653" style="stroke:#181818;stroke-width:1.0;"/><text fill="#000000" font-family="sans-serif" font-size="13" lengthAdjust="spacing" textLength="93" x="47" y="353.8551">Nicht eingeloggt</text></g><!--link *start*SelfCheckout to Login--><g id="link_*start*SelfCheckout_Login"><path d="M576,71.08 C576,87.86 576,118.22 576,142.65 " fill="none" id="*start*SelfCheckout-to-Login" style="stroke:#181818;stroke-width:1.0;"/><polygon fill="#181818" points="576,148.65,580,139.65,576,143.65,572,139.65,576,148.65" style="stroke:#181818;stroke-width:1.0;"/><text fill="#000000" font-family="sans-serif" font-size="13" lengthAdjust="spacing" textLength="73" x="577" y="115.4951">Login-Button</text></g><!--link Login to Dashboard--><g id="link_Login_Dashboard"><path d="M576,199.08 C576,216.75 576,241.0775 576,261.2275 C576,263.7463 576,266.1997 576,268.5668 C576,269.1585 576,269.7449 576,270.3255 C576,270.4707 576,264.6155 576,264.7599 " fill="none" id="Login-to-Dashboard" style="stroke:#181818;stroke-width:1.0;"/><polygon fill="#181818" points="576,270.7599,580,261.7599,576,265.7599,572,261.7599,576,270.7599" style="stroke:#181818;stroke-width:1.0;"/><text fill="#000000" font-family="sans-serif" font-size="13" lengthAdjust="spacing" textLength="107" x="577" y="243.4951">Erfolgreicher Login</text></g><!--link *start*Dashboard to Dashboard--><g id="link_*start*Dashboard_Dashboard"><path d="M961.85,463.62 C961.08,444.32 956.78,399.25 934,371.36 C914.13,347.04 901,348.66 871,339.36 C746.66,300.8 587.26,300.36 582.12,300.36 " fill="none" id="*start*Dashboard-to-Dashboard" style="stroke:#181818;stroke-width:1.0;"/><polygon fill="#181818" points="576.12,300.36,585.12,304.36,581.12,300.36,585.12,296.36,576.12,300.36" style="stroke:#181818;stroke-width:1.0;"/></g><!--link Dashboard to Labor--><g id="link_Dashboard_Labor"><path d="M575.87,300.42 C573.13,301.59 528.88,320.65 495,339.36 C469.14,353.64 447.4082,367.1407 422.3782,383.9807 " fill="none" id="Dashboard-to-Labor" style="stroke:#181818;stroke-width:1.0;"/><polygon fill="#181818" points="417.4,387.33,427.1001,385.6249,421.5485,384.5389,422.6344,378.9873,417.4,387.33" style="stroke:#181818;stroke-width:1.0;"/><text fill="#000000" font-family="sans-serif" font-size="13" lengthAdjust="spacing" textLength="32" x="496" y="353.8551">/labor</text></g><!--link Dashboard to Kasse--><g id="link_Dashboard_Kasse"><path d="M575.95,300.42 C574.86,301.62 557.37,321.18 547,339.36 C526.33,375.6 510.9192,415.3229 501.2292,442.7429 " fill="none" id="Dashboard-to-Kasse" style="stroke:#181818;stroke-width:1.0;"/><polygon fill="#181818" points="499.23,448.4,506.0002,441.2471,500.896,443.6857,498.4574,438.5815,499.23,448.4" style="stroke:#181818;stroke-width:1.0;"/><text fill="#000000" font-family="sans-serif" font-size="13" lengthAdjust="spacing" textLength="57" x="548" y="353.8551">/checkout</text></g><!--link Dashboard to Verwaltung--><g id="link_Dashboard_Verwaltung"><path d="M576.06,300.42 C577.3,301.62 597.26,321.08 610,339.36 C620.42,354.31 627.5753,365.6779 636.7753,381.9379 " fill="none" id="Dashboard-to-Verwaltung" style="stroke:#181818;stroke-width:1.0;"/><polygon fill="#181818" points="639.73,387.16,638.7794,377.3571,637.2678,382.8083,631.8166,381.2967,639.73,387.16" style="stroke:#181818;stroke-width:1.0;"/><text fill="#000000" font-family="sans-serif" font-size="13" lengthAdjust="spacing" textLength="132" x="622" y="353.8551">[wenn Rolle == BOSS]</text></g><!--link Dashboard to SelfCheckout--><g id="link_Dashboard_SelfCheckout"><path d="M150.781,378.5842 C150.6453,378.721 150.5101,378.8583 150.3754,378.996 C149.8363,379.547 149.3042,380.1057 148.7791,380.6716 C147.7289,381.8035 146.7064,382.9646 145.7111,384.1516 C141.7299,388.8994 138.1827,394.0613 135.0259,399.4277 C128.7125,410.1603 123.9613,421.7106 120.425,432.4013 C113.3525,453.7825 111.8538,465.7676 111.7238,466.8526 " fill="none" id="Dashboard-to-SelfCheckout" style="stroke:#181818;stroke-width:1.0;"/><polygon fill="#181818" points="111.01,472.81,116.0523,464.3498,111.6048,467.8455,108.1091,463.3981,111.01,472.81" style="stroke:#181818;stroke-width:1.0;"/><text fill="#000000" font-family="sans-serif" font-size="13" lengthAdjust="spacing" textLength="81" x="241" y="353.8551">Logout-Button</text></g><!--link Dashboard to Inventar--><g id="link_Dashboard_Inventar"><path d="M576.12,300.35 C581.25,300.06 746.05,291.33 828,371.36 C850.33,393.17 863.1481,420.7618 871.3181,443.2118 " fill="none" id="Dashboard-to-Inventar" style="stroke:#181818;stroke-width:1.0;"/><polygon fill="#181818" points="873.37,448.85,874.051,439.0247,871.6601,444.1515,866.5334,441.7605,873.37,448.85" style="stroke:#181818;stroke-width:1.0;"/><text fill="#000000" font-family="sans-serif" font-size="13" lengthAdjust="spacing" textLength="55" x="807" y="353.8551">/inventory</text></g><!--SRC=[RP8_JyCm4CLtVugRaQBibSeGO40Wa1g99UhWXAiJOTdL-TmAKByx_fEI1EB5zlbtVdvFRcxsK1ItKAC-tFNOVLZFi86NeUiPS30AjLMAXN0i6PVOju0mcl66Pwi64rhJN5IUsPe4v8E8t4lNjrRIUy0Uw62r8Wn2I9aHbwlC12urVkkfEb59NxQMDb3gECCAy2ITmw1STgE15UODwImrUwC2s9pH6DXPhH6sMwXUwtg_qlCdkc0bBEO1BF57SqB3ak9BXhIsz2aIcCqd8zdt8jzORj4nQftVbwsM1lqwh8S0JrpQPg4Gz4nmPlg_R8KK_qAwX_1eYLSGu_aBwJGFhsp7wbNm8du0]--></g></svg>