<svg xmlns="http://www.w3.org/2000/svg" xmlns:xlink="http://www.w3.org/1999/xlink" contentStyleType="text/css" height="546.6px" preserveAspectRatio="none" style="width:998px;height:546px;background:#FFFFFF;" version="1.1" viewBox="0 0 998 546" width="998.4px" zoomAndPan="magnify"><defs/><g><!--cluster pharmacy--><g id="cluster_pharmacy"><path d="M5.1,3.6082 L45.3867,3.6082 A2.25,2.25 0 0 1 46.8867,5.1082 L51.0867,18.3809 L955.5,18.3809 A1.5,1.5 0 0 1 957,19.8809 L957,344.1082 A1.5,1.5 0 0 1 955.5,345.6082 L5.1,345.6082 A1.5,1.5 0 0 1 3.6,344.1082 L3.6,5.1082 A1.5,1.5 0 0 1 5.1,3.6082 " fill="none" style="stroke:#000000;stroke-width:0.8999999999999999;"/><line style="stroke:#000000;stroke-width:0.8999999999999999;" x1="3.6" x2="51.0867" y1="18.3809" y2="18.3809"/><text fill="#000000" font-family="sans-serif" font-size="8.4" font-weight="bold" lengthAdjust="spacing" textLength="39.6867" x="6" y="13.8727">pharmacy</text></g><!--cluster catalog--><g id="cluster_catalog"><path d="M19.5,30.6082 L49.5082,30.6082 A2.25,2.25 0 0 1 51.0082,32.1082 L55.2082,45.3809 L799.5,45.3809 A1.5,1.5 0 0 1 801,46.8809 L801,329.7082 A1.5,1.5 0 0 1 799.5,331.2082 L19.5,331.2082 A1.5,1.5 0 0 1 18,329.7082 L18,32.1082 A1.5,1.5 0 0 1 19.5,30.6082 " fill="none" style="stroke:#000000;stroke-width:0.8999999999999999;"/><line style="stroke:#000000;stroke-width:0.8999999999999999;" x1="18" x2="55.2082" y1="45.3809" y2="45.3809"/><text fill="#000000" font-family="sans-serif" font-size="8.4" font-weight="bold" lengthAdjust="spacing" textLength="29.4082" x="20.4" y="40.8727">catalog</text></g><!--cluster order--><g id="cluster_order"><path d="M816.9,231.6082 L838.9717,231.6082 A2.25,2.25 0 0 1 840.4717,233.1082 L844.6717,246.3809 L941.1,246.3809 A1.5,1.5 0 0 1 942.6,247.8809 L942.6,290.7082 A1.5,1.5 0 0 1 941.1,292.2082 L816.9,292.2082 A1.5,1.5 0 0 1 815.4,290.7082 L815.4,233.1082 A1.5,1.5 0 0 1 816.9,231.6082 " fill="none" style="stroke:#000000;stroke-width:0.8999999999999999;"/><line style="stroke:#000000;stroke-width:0.8999999999999999;" x1="815.4" x2="844.6717" y1="246.3809" y2="246.3809"/><text fill="#000000" font-family="sans-serif" font-size="8.4" font-weight="bold" lengthAdjust="spacing" textLength="21.4717" x="817.8" y="241.8727">order</text></g><!--cluster org--><g id="cluster_org"><path d="M270.9,365.4082 L285.0311,365.4082 A2.25,2.25 0 0 1 286.5311,366.9082 L290.7311,380.1809 L669.3,380.1809 A1.5,1.5 0 0 1 670.8,381.6809 L670.8,540.9082 A1.5,1.5 0 0 1 669.3,542.4082 L270.9,542.4082 A1.5,1.5 0 0 1 269.4,540.9082 L269.4,366.9082 A1.5,1.5 0 0 1 270.9,365.4082 " fill="none" style="stroke:#000000;stroke-width:0.8999999999999999;"/><line style="stroke:#000000;stroke-width:0.8999999999999999;" x1="269.4" x2="290.7311" y1="380.1809" y2="380.1809"/><text fill="#000000" font-family="sans-serif" font-size="8.4" font-weight="bold" lengthAdjust="spacing" textLength="13.5311" x="271.8" y="375.6727">org</text></g><!--cluster salespointframework--><g id="cluster_salespointframework"><path d="M285.3,392.4082 L369.9287,392.4082 A2.25,2.25 0 0 1 371.4287,393.9082 L375.6287,407.1809 L654.9,407.1809 A1.5,1.5 0 0 1 656.4,408.6809 L656.4,526.5082 A1.5,1.5 0 0 1 654.9,528.0082 L285.3,528.0082 A1.5,1.5 0 0 1 283.8,526.5082 L283.8,393.9082 A1.5,1.5 0 0 1 285.3,392.4082 " fill="none" style="stroke:#000000;stroke-width:0.8999999999999999;"/><line style="stroke:#000000;stroke-width:0.8999999999999999;" x1="283.8" x2="375.6287" y1="407.1809" y2="407.1809"/><text fill="#000000" font-family="sans-serif" font-size="8.4" font-weight="bold" lengthAdjust="spacing" textLength="84.0287" x="286.2" y="402.6727">salespointframework</text></g><!--cluster catalog--><g id="cluster_catalog"><path d="M299.7,419.4082 L329.7082,419.4082 A2.25,2.25 0 0 1 331.2082,420.9082 L335.4082,434.1809 L534.9,434.1809 A1.5,1.5 0 0 1 536.4,435.6809 L536.4,512.1082 A1.5,1.5 0 0 1 534.9,513.6082 L299.7,513.6082 A1.5,1.5 0 0 1 298.2,512.1082 L298.2,420.9082 A1.5,1.5 0 0 1 299.7,419.4082 " fill="none" style="stroke:#000000;stroke-width:0.8999999999999999;"/><line style="stroke:#000000;stroke-width:0.8999999999999999;" x1="298.2" x2="335.4082" y1="434.1809" y2="434.1809"/><text fill="#000000" font-family="sans-serif" font-size="8.4" font-weight="bold" lengthAdjust="spacing" textLength="29.4082" x="300.6" y="429.6727">catalog</text></g><!--cluster inventory--><g id="cluster_inventory"><path d="M552.3,436.2082 L590.7082,436.2082 A2.25,2.25 0 0 1 592.2082,437.7082 L596.4082,450.9809 L640.5,450.9809 A1.5,1.5 0 0 1 642,452.4809 L642,495.3082 A1.5,1.5 0 0 1 640.5,496.8082 L552.3,496.8082 A1.5,1.5 0 0 1 550.8,495.3082 L550.8,437.7082 A1.5,1.5 0 0 1 552.3,436.2082 " fill="none" style="stroke:#000000;stroke-width:0.8999999999999999;"/><line style="stroke:#000000;stroke-width:0.8999999999999999;" x1="550.8" x2="596.4082" y1="450.9809" y2="450.9809"/><text fill="#000000" font-family="sans-serif" font-size="8.4" font-weight="bold" lengthAdjust="spacing" textLength="37.8082" x="553.2" y="446.4727">inventory</text></g><!--class Medication--><g id="elem_Medication"><rect codeLine="2" fill="#F1F1F1" height="107.0086" id="Medication" rx="1.5" ry="1.5" style="stroke:#181818;stroke-width:0.3;" width="201.4254" x="589.8" y="214.8082"/><ellipse cx="667.6518" cy="224.4082" fill="#ADD1B2" rx="6.6" ry="6.6" style="stroke:#181818;stroke-width:0.6;"/><path d="M669.3111,221.9332 Q669.4049,221.802 669.5174,221.7363 Q669.6299,221.6707 669.7611,221.6707 Q669.9861,221.6707 670.1268,221.8301 Q670.2674,221.9801 670.2674,222.3457 L670.2674,223.2176 Q670.2674,223.5832 670.1268,223.7426 Q669.9861,223.902 669.7611,223.902 Q669.5549,223.902 669.433,223.7801 Q669.3111,223.6676 669.2455,223.3582 Q669.2174,223.1426 669.1049,223.0301 Q668.908,222.8051 668.5424,222.6738 Q668.1768,222.5426 667.8018,222.5426 Q667.3424,222.5426 666.958,222.7395 Q666.583,222.9363 666.283,223.3863 Q665.9924,223.8363 665.9924,224.4551 L665.9924,225.1113 Q665.9924,225.852 666.5268,226.3488 Q667.0611,226.8363 668.0174,226.8363 Q668.5799,226.8363 668.9736,226.6863 Q669.208,226.5926 669.4611,226.3301 Q669.6205,226.1707 669.7049,226.1238 Q669.7986,226.077 669.9205,226.077 Q670.1174,226.077 670.2674,226.2363 Q670.4268,226.3863 670.4268,226.5926 Q670.4268,226.7988 670.2205,227.0426 Q669.9205,227.3895 669.4424,227.5863 Q668.7955,227.8582 668.0174,227.8582 Q667.108,227.8582 666.3861,227.4832 Q665.7955,227.1832 665.383,226.5457 Q664.9705,225.8988 664.9705,225.1301 L664.9705,224.4363 Q664.9705,223.6395 665.3361,222.9551 Q665.7111,222.2613 666.3674,221.8957 Q667.0236,221.5207 667.7643,221.5207 Q668.2049,221.5207 668.5893,221.6238 Q668.983,221.7176 669.3111,221.9332 Z " fill="#000000"/><text fill="#000000" font-family="sans-serif" font-size="8.4" lengthAdjust="spacing" textLength="40.6219" x="679.9518" y="227.8863">Medication</text><line style="stroke:#181818;stroke-width:0.3;" x1="590.4" x2="790.6254" y1="234.0082" y2="234.0082"/><rect fill="none" height="3.6" style="stroke:#C82930;stroke-width:0.6;" width="3.6" x="594.6" y="241.0945"/><text fill="#000000" font-family="sans-serif" font-size="8.4" lengthAdjust="spacing" textLength="56.9666" x="601.8" y="245.4727">barcode: String</text><rect fill="none" height="3.6" style="stroke:#C82930;stroke-width:0.6;" width="3.6" x="594.6" y="252.2672"/><text fill="#000000" font-family="sans-serif" font-size="8.4" lengthAdjust="spacing" textLength="64.9072" x="601.8" y="256.6453">packaging: String</text><rect fill="none" height="3.6" style="stroke:#C82930;stroke-width:0.6;" width="3.6" x="594.6" y="263.4398"/><text fill="#000000" font-family="sans-serif" font-size="8.4" lengthAdjust="spacing" textLength="101.8008" x="601.8" y="267.818">needsPrescription: boolean</text><line style="stroke:#181818;stroke-width:0.3;" x1="590.4" x2="790.6254" y1="272.3262" y2="272.3262"/><ellipse cx="596.4" cy="281.2125" fill="#84BE84" rx="1.8" ry="1.8" style="stroke:#038048;stroke-width:0.6;"/><text fill="#000000" font-family="sans-serif" font-size="8.4" lengthAdjust="spacing" textLength="185.8254" x="601.8" y="283.7906">Medication(String, String, Money, String, boolean)</text><ellipse cx="596.4" cy="292.3852" fill="#84BE84" rx="1.8" ry="1.8" style="stroke:#038048;stroke-width:0.6;"/><text fill="#000000" font-family="sans-serif" font-size="8.4" lengthAdjust="spacing" textLength="75.1693" x="601.8" y="294.9633">getBarcode(): String</text><ellipse cx="596.4" cy="303.5578" fill="#84BE84" rx="1.8" ry="1.8" style="stroke:#038048;stroke-width:0.6;"/><text fill="#000000" font-family="sans-serif" font-size="8.4" lengthAdjust="spacing" textLength="83.11" x="601.8" y="306.1359">getPackaging(): String</text><ellipse cx="596.4" cy="314.7305" fill="#84BE84" rx="1.8" ry="1.8" style="stroke:#038048;stroke-width:0.6;"/><text fill="#000000" font-family="sans-serif" font-size="8.4" lengthAdjust="spacing" textLength="120.467" x="601.8" y="317.3086">getNeedsPrescription(): boolean</text></g><!--class MedicationCatalog--><g id="elem_MedicationCatalog"><rect codeLine="12" fill="#F1F1F1" height="58.6945" id="MedicationCatalog" rx="1.5" ry="1.5" style="stroke:#181818;stroke-width:0.3;" width="184.1578" x="191.1" y="238.8082"/><ellipse cx="245.8415" cy="252.1828" fill="#B4A7E5" rx="6.6" ry="6.6" style="stroke:#181818;stroke-width:0.6;"/><path d="M246.4134,250.1672 L246.4134,254.1609 L247.4446,254.1609 Q247.8103,254.1609 247.9696,254.3016 Q248.129,254.4422 248.129,254.6766 Q248.129,254.9016 247.9696,255.0422 Q247.8103,255.1828 247.4446,255.1828 L244.3603,255.1828 Q243.9946,255.1828 243.8353,255.0422 Q243.6759,254.9016 243.6759,254.6672 Q243.6759,254.4422 243.8353,254.3016 Q243.9946,254.1609 244.3603,254.1609 L245.3915,254.1609 L245.3915,250.1672 L244.3603,250.1672 Q243.9946,250.1672 243.8353,250.0266 Q243.6759,249.8859 243.6759,249.6516 Q243.6759,249.4266 243.8353,249.2859 Q243.9946,249.1453 244.3603,249.1453 L247.4446,249.1453 Q247.8103,249.1453 247.9696,249.2859 Q248.129,249.4266 248.129,249.6516 Q248.129,249.8859 247.9696,250.0266 Q247.8103,250.1672 247.4446,250.1672 L246.4134,250.1672 Z " fill="#000000"/><text fill="#000000" font-family="sans-serif" font-size="7.2" font-style="italic" lengthAdjust="spacing" textLength="42.423" x="271.7174" y="249.5777">&#171;Repository&#187;</text><text fill="#000000" font-family="sans-serif" font-size="8.4" font-style="italic" lengthAdjust="spacing" textLength="69.5748" x="258.1415" y="260.4492">MedicationCatalog</text><line style="stroke:#181818;stroke-width:0.3;" x1="191.7" x2="374.6578" y1="265.5574" y2="265.5574"/><line style="stroke:#181818;stroke-width:0.3;" x1="191.7" x2="374.6578" y1="270.3574" y2="270.3574"/><ellipse cx="197.7" cy="279.2438" fill="#84BE84" rx="1.8" ry="1.8" style="stroke:#038048;stroke-width:0.6;"/><text fill="#000000" font-family="sans-serif" font-size="8.4" lengthAdjust="spacing" textLength="168.5578" x="203.1" y="281.8219">findByBarcode(String): Optional&lt;Medication&gt;</text><ellipse cx="197.7" cy="290.4164" fill="#84BE84" rx="1.8" ry="1.8" style="stroke:#038048;stroke-width:0.6;"/><text fill="#000000" font-family="sans-serif" font-size="8.4" lengthAdjust="spacing" textLength="126.5291" x="203.1" y="292.9945">findAll(): Streamable&lt;Medication&gt;</text></g><!--class MixtureIngredient--><g id="elem_MixtureIngredient"><rect codeLine="18" fill="#F1F1F1" height="62.318" id="MixtureIngredient" rx="1.5" ry="1.5" style="stroke:#181818;stroke-width:0.3;" width="172.4807" x="396.3" y="237.0082"/><ellipse cx="447.5408" cy="246.6082" fill="#ADD1B2" rx="6.6" ry="6.6" style="stroke:#181818;stroke-width:0.6;"/><path d="M449.2002,244.1332 Q449.2939,244.002 449.4064,243.9363 Q449.5189,243.8707 449.6502,243.8707 Q449.8752,243.8707 450.0158,244.0301 Q450.1564,244.1801 450.1564,244.5457 L450.1564,245.4176 Q450.1564,245.7832 450.0158,245.9426 Q449.8752,246.102 449.6502,246.102 Q449.4439,246.102 449.3221,245.9801 Q449.2002,245.8676 449.1346,245.5582 Q449.1064,245.3426 448.9939,245.2301 Q448.7971,245.0051 448.4314,244.8738 Q448.0658,244.7426 447.6908,244.7426 Q447.2314,244.7426 446.8471,244.9395 Q446.4721,245.1363 446.1721,245.5863 Q445.8814,246.0363 445.8814,246.6551 L445.8814,247.3113 Q445.8814,248.052 446.4158,248.5488 Q446.9502,249.0363 447.9064,249.0363 Q448.4689,249.0363 448.8627,248.8863 Q449.0971,248.7926 449.3502,248.5301 Q449.5096,248.3707 449.5939,248.3238 Q449.6877,248.277 449.8096,248.277 Q450.0064,248.277 450.1564,248.4363 Q450.3158,248.5863 450.3158,248.7926 Q450.3158,248.9988 450.1096,249.2426 Q449.8096,249.5895 449.3314,249.7863 Q448.6846,250.0582 447.9064,250.0582 Q446.9971,250.0582 446.2752,249.6832 Q445.6846,249.3832 445.2721,248.7457 Q444.8596,248.0988 444.8596,247.3301 L444.8596,246.6363 Q444.8596,245.8395 445.2252,245.1551 Q445.6002,244.4613 446.2564,244.0957 Q446.9127,243.7207 447.6533,243.7207 Q448.0939,243.7207 448.4783,243.8238 Q448.8721,243.9176 449.2002,244.1332 Z " fill="#000000"/><text fill="#000000" font-family="sans-serif" font-size="8.4" lengthAdjust="spacing" textLength="64.899" x="459.8408" y="250.0863">MixtureIngredient</text><line style="stroke:#181818;stroke-width:0.3;" x1="396.9" x2="568.1807" y1="256.2082" y2="256.2082"/><rect fill="none" height="3.6" style="stroke:#C82930;stroke-width:0.6;" width="3.6" x="401.1" y="263.2945"/><text fill="#000000" font-family="sans-serif" font-size="8.4" lengthAdjust="spacing" textLength="101.8008" x="408.3" y="267.6727">needsPrescription: boolean</text><line style="stroke:#181818;stroke-width:0.3;" x1="396.9" x2="568.1807" y1="272.1809" y2="272.1809"/><ellipse cx="402.9" cy="281.0672" fill="#84BE84" rx="1.8" ry="1.8" style="stroke:#038048;stroke-width:0.6;"/><text fill="#000000" font-family="sans-serif" font-size="8.4" lengthAdjust="spacing" textLength="156.8807" x="408.3" y="283.6453">MixtureIngredient(String, Money, boolean)</text><ellipse cx="402.9" cy="292.2398" fill="#84BE84" rx="1.8" ry="1.8" style="stroke:#038048;stroke-width:0.6;"/><text fill="#000000" font-family="sans-serif" font-size="8.4" lengthAdjust="spacing" textLength="120.467" x="408.3" y="294.818">getNeedsPrescription(): boolean</text></g><!--class IngredientCatalog--><g id="elem_IngredientCatalog"><rect codeLine="24" fill="#F1F1F1" height="47.5219" id="IngredientCatalog" rx="1.5" ry="1.5" style="stroke:#181818;stroke-width:0.3;" width="142.1291" x="27.9" y="244.5082"/><ellipse cx="63.2575" cy="257.8828" fill="#B4A7E5" rx="6.6" ry="6.6" style="stroke:#181818;stroke-width:0.6;"/><path d="M63.8294,255.8672 L63.8294,259.8609 L64.8606,259.8609 Q65.2263,259.8609 65.3856,260.0016 Q65.545,260.1422 65.545,260.3766 Q65.545,260.6016 65.3856,260.7422 Q65.2263,260.8828 64.8606,260.8828 L61.7763,260.8828 Q61.4106,260.8828 61.2513,260.7422 Q61.0919,260.6016 61.0919,260.3672 Q61.0919,260.1422 61.2513,260.0016 Q61.4106,259.8609 61.7763,259.8609 L62.8075,259.8609 L62.8075,255.8672 L61.7763,255.8672 Q61.4106,255.8672 61.2513,255.7266 Q61.0919,255.5859 61.0919,255.3516 Q61.0919,255.1266 61.2513,254.9859 Q61.4106,254.8453 61.7763,254.8453 L64.8606,254.8453 Q65.2263,254.8453 65.3856,254.9859 Q65.545,255.1266 65.545,255.3516 Q65.545,255.5859 65.3856,255.7266 Q65.2263,255.8672 64.8606,255.8672 L63.8294,255.8672 Z " fill="#000000"/><text fill="#000000" font-family="sans-serif" font-size="7.2" font-style="italic" lengthAdjust="spacing" textLength="42.423" x="87.503" y="255.2777">&#171;Repository&#187;</text><text fill="#000000" font-family="sans-serif" font-size="8.4" font-style="italic" lengthAdjust="spacing" textLength="66.3141" x="75.5575" y="266.1492">IngredientCatalog</text><line style="stroke:#181818;stroke-width:0.3;" x1="28.5" x2="169.4291" y1="271.2574" y2="271.2574"/><line style="stroke:#181818;stroke-width:0.3;" x1="28.5" x2="169.4291" y1="276.0574" y2="276.0574"/><ellipse cx="34.5" cy="284.9437" fill="#84BE84" rx="1.8" ry="1.8" style="stroke:#038048;stroke-width:0.6;"/><text fill="#000000" font-family="sans-serif" font-size="8.4" lengthAdjust="spacing" textLength="126.5291" x="39.9" y="287.5219">findAll(): Streamable&lt;Medication&gt;</text></g><!--class CatalogDataInitializer--><g id="elem_CatalogDataInitializer"><rect codeLine="29" fill="#F1F1F1" height="69.8672" id="CatalogDataInitializer" rx="1.5" ry="1.5" style="stroke:#181818;stroke-width:0.3;" width="159.4172" x="220.8" y="75.3082"/><ellipse cx="258.0381" cy="88.6828" fill="#ADD1B2" rx="6.6" ry="6.6" style="stroke:#181818;stroke-width:0.6;"/><path d="M259.6975,86.2078 Q259.7912,86.0766 259.9037,86.0109 Q260.0162,85.9453 260.1475,85.9453 Q260.3725,85.9453 260.5131,86.1047 Q260.6537,86.2547 260.6537,86.6203 L260.6537,87.4922 Q260.6537,87.8578 260.5131,88.0172 Q260.3725,88.1766 260.1475,88.1766 Q259.9412,88.1766 259.8193,88.0547 Q259.6975,87.9422 259.6318,87.6328 Q259.6037,87.4172 259.4912,87.3047 Q259.2943,87.0797 258.9287,86.9484 Q258.5631,86.8172 258.1881,86.8172 Q257.7287,86.8172 257.3443,87.0141 Q256.9693,87.2109 256.6693,87.6609 Q256.3787,88.1109 256.3787,88.7297 L256.3787,89.3859 Q256.3787,90.1266 256.9131,90.6234 Q257.4475,91.1109 258.4037,91.1109 Q258.9662,91.1109 259.36,90.9609 Q259.5943,90.8672 259.8475,90.6047 Q260.0068,90.4453 260.0912,90.3984 Q260.185,90.3516 260.3068,90.3516 Q260.5037,90.3516 260.6537,90.5109 Q260.8131,90.6609 260.8131,90.8672 Q260.8131,91.0734 260.6068,91.3172 Q260.3068,91.6641 259.8287,91.8609 Q259.1818,92.1328 258.4037,92.1328 Q257.4943,92.1328 256.7725,91.7578 Q256.1818,91.4578 255.7693,90.8203 Q255.3568,90.1734 255.3568,89.4047 L255.3568,88.7109 Q255.3568,87.9141 255.7225,87.2297 Q256.0975,86.5359 256.7537,86.1703 Q257.41,85.7953 258.1506,85.7953 Q258.5912,85.7953 258.9756,85.8984 Q259.3693,85.9922 259.6975,86.2078 Z " fill="#000000"/><text fill="#000000" font-family="sans-serif" font-size="7.2" font-style="italic" lengthAdjust="spacing" textLength="45.232" x="287.6426" y="86.0777">&#171;Component&#187;</text><text fill="#000000" font-family="sans-serif" font-size="8.4" lengthAdjust="spacing" textLength="79.841" x="270.3381" y="96.9492">CatalogDataInitializer</text><line style="stroke:#181818;stroke-width:0.3;" x1="221.4" x2="379.6172" y1="102.0574" y2="102.0574"/><rect fill="none" height="3.6" style="stroke:#C82930;stroke-width:0.6;" width="3.6" x="225.6" y="109.1438"/><text fill="#000000" font-family="sans-serif" font-size="8.4" lengthAdjust="spacing" textLength="143.8172" x="232.8" y="113.5219">medicationCatalog: MedicationCatalog</text><rect fill="none" height="3.6" style="stroke:#C82930;stroke-width:0.6;" width="3.6" x="225.6" y="120.3164"/><text fill="#000000" font-family="sans-serif" font-size="8.4" lengthAdjust="spacing" textLength="136.8281" x="232.8" y="124.6945">ingredientCatalog: IngredientCatalog</text><line style="stroke:#181818;stroke-width:0.3;" x1="221.4" x2="379.6172" y1="129.2027" y2="129.2027"/><ellipse cx="227.4" cy="138.0891" fill="#84BE84" rx="1.8" ry="1.8" style="stroke:#038048;stroke-width:0.6;"/><text fill="#000000" font-family="sans-serif" font-size="8.4" lengthAdjust="spacing" textLength="55.5516" x="232.8" y="140.6672">initialize(): void</text></g><!--class MedicationController--><g id="elem_MedicationController"><rect codeLine="34" fill="#F1F1F1" height="114.5578" id="MedicationController" rx="1.5" ry="1.5" style="stroke:#181818;stroke-width:0.3;" width="159.4172" x="489.6" y="52.8082"/><ellipse cx="528.2408" cy="66.1828" fill="#ADD1B2" rx="6.6" ry="6.6" style="stroke:#181818;stroke-width:0.6;"/><path d="M529.9002,63.7078 Q529.9939,63.5766 530.1064,63.5109 Q530.2189,63.4453 530.3502,63.4453 Q530.5752,63.4453 530.7158,63.6047 Q530.8564,63.7547 530.8564,64.1203 L530.8564,64.9922 Q530.8564,65.3578 530.7158,65.5172 Q530.5752,65.6766 530.3502,65.6766 Q530.1439,65.6766 530.0221,65.5547 Q529.9002,65.4422 529.8346,65.1328 Q529.8064,64.9172 529.6939,64.8047 Q529.4971,64.5797 529.1314,64.4484 Q528.7658,64.3172 528.3908,64.3172 Q527.9314,64.3172 527.5471,64.5141 Q527.1721,64.7109 526.8721,65.1609 Q526.5814,65.6109 526.5814,66.2297 L526.5814,66.8859 Q526.5814,67.6266 527.1158,68.1234 Q527.6502,68.6109 528.6064,68.6109 Q529.1689,68.6109 529.5627,68.4609 Q529.7971,68.3672 530.0502,68.1047 Q530.2096,67.9453 530.2939,67.8984 Q530.3877,67.8516 530.5096,67.8516 Q530.7064,67.8516 530.8564,68.0109 Q531.0158,68.1609 531.0158,68.3672 Q531.0158,68.5734 530.8096,68.8172 Q530.5096,69.1641 530.0314,69.3609 Q529.3846,69.6328 528.6064,69.6328 Q527.6971,69.6328 526.9752,69.2578 Q526.3846,68.9578 525.9721,68.3203 Q525.5596,67.6734 525.5596,66.9047 L525.5596,66.2109 Q525.5596,65.4141 525.9252,64.7297 Q526.3002,64.0359 526.9564,63.6703 Q527.6127,63.2953 528.3533,63.2953 Q528.7939,63.2953 529.1783,63.3984 Q529.5721,63.4922 529.9002,63.7078 Z " fill="#000000"/><text fill="#000000" font-family="sans-serif" font-size="7.2" font-style="italic" lengthAdjust="spacing" textLength="39.2203" x="559.4484" y="63.5777">&#171;Controller&#187;</text><text fill="#000000" font-family="sans-serif" font-size="8.4" lengthAdjust="spacing" textLength="77.0355" x="540.5408" y="74.4492">MedicationController</text><line style="stroke:#181818;stroke-width:0.3;" x1="490.2" x2="648.4172" y1="79.5574" y2="79.5574"/><rect fill="none" height="3.6" style="stroke:#C82930;stroke-width:0.6;" width="3.6" x="494.4" y="86.6438"/><text fill="#000000" font-family="sans-serif" font-size="8.4" lengthAdjust="spacing" textLength="143.8172" x="501.6" y="91.0219">medicationCatalog: MedicationCatalog</text><rect fill="none" height="3.6" style="stroke:#C82930;stroke-width:0.6;" width="3.6" x="494.4" y="97.8164"/><text fill="#000000" font-family="sans-serif" font-size="8.4" lengthAdjust="spacing" textLength="136.8281" x="501.6" y="102.1945">ingredientCatalog: IngredientCatalog</text><rect fill="none" height="3.6" style="stroke:#C82930;stroke-width:0.6;" width="3.6" x="494.4" y="108.9891"/><text fill="#000000" font-family="sans-serif" font-size="8.4" lengthAdjust="spacing" textLength="91.0383" x="501.6" y="113.3672">inventory: MultiInventory</text><line style="stroke:#181818;stroke-width:0.3;" x1="490.2" x2="648.4172" y1="117.8754" y2="117.8754"/><ellipse cx="496.2" cy="126.7617" fill="#84BE84" rx="1.8" ry="1.8" style="stroke:#038048;stroke-width:0.6;"/><text fill="#000000" font-family="sans-serif" font-size="8.4" lengthAdjust="spacing" textLength="109.2369" x="501.6" y="129.3398">showAddForm(Model): String</text><ellipse cx="496.2" cy="137.9344" fill="#84BE84" rx="1.8" ry="1.8" style="stroke:#038048;stroke-width:0.6;"/><text fill="#000000" font-family="sans-serif" font-size="8.4" lengthAdjust="spacing" textLength="93.8438" x="501.6" y="140.5125">addMedication(...): String</text><ellipse cx="496.2" cy="149.107" fill="#84BE84" rx="1.8" ry="1.8" style="stroke:#038048;stroke-width:0.6;"/><text fill="#000000" font-family="sans-serif" font-size="8.4" lengthAdjust="spacing" textLength="131.652" x="501.6" y="151.6852">showIngredientForm(Model): String</text><ellipse cx="496.2" cy="160.2797" fill="#84BE84" rx="1.8" ry="1.8" style="stroke:#038048;stroke-width:0.6;"/><text fill="#000000" font-family="sans-serif" font-size="8.4" lengthAdjust="spacing" textLength="90.583" x="501.6" y="162.8578">addIngredient(...): String</text></g><!--class PharmacyInventoryItem--><g id="elem_PharmacyInventoryItem"><rect fill="#F1F1F1" height="28.8" id="PharmacyInventoryItem" rx="1.5" ry="1.5" style="stroke:#181818;stroke-width:0.3;" width="107.9004" x="825" y="253.8082"/><ellipse cx="834" cy="263.4082" fill="#ADD1B2" rx="6.6" ry="6.6" style="stroke:#181818;stroke-width:0.6;"/><path d="M835.6594,260.9332 Q835.7531,260.802 835.8656,260.7363 Q835.9781,260.6707 836.1094,260.6707 Q836.3344,260.6707 836.475,260.8301 Q836.6156,260.9801 836.6156,261.3457 L836.6156,262.2176 Q836.6156,262.5832 836.475,262.7426 Q836.3344,262.902 836.1094,262.902 Q835.9031,262.902 835.7813,262.7801 Q835.6594,262.6676 835.5938,262.3582 Q835.5656,262.1426 835.4531,262.0301 Q835.2563,261.8051 834.8906,261.6738 Q834.525,261.5426 834.15,261.5426 Q833.6906,261.5426 833.3063,261.7395 Q832.9313,261.9363 832.6313,262.3863 Q832.3406,262.8363 832.3406,263.4551 L832.3406,264.1113 Q832.3406,264.852 832.875,265.3488 Q833.4094,265.8363 834.3656,265.8363 Q834.9281,265.8363 835.3219,265.6863 Q835.5563,265.5926 835.8094,265.3301 Q835.9688,265.1707 836.0531,265.1238 Q836.1469,265.077 836.2688,265.077 Q836.4656,265.077 836.6156,265.2363 Q836.775,265.3863 836.775,265.5926 Q836.775,265.7988 836.5688,266.0426 Q836.2688,266.3895 835.7906,266.5863 Q835.1438,266.8582 834.3656,266.8582 Q833.4563,266.8582 832.7344,266.4832 Q832.1438,266.1832 831.7312,265.5457 Q831.3188,264.8988 831.3188,264.1301 L831.3188,263.4363 Q831.3188,262.6395 831.6844,261.9551 Q832.0594,261.2613 832.7156,260.8957 Q833.3719,260.5207 834.1125,260.5207 Q834.5531,260.5207 834.9375,260.6238 Q835.3313,260.7176 835.6594,260.9332 Z " fill="#000000"/><text fill="#000000" font-family="sans-serif" font-size="8.4" lengthAdjust="spacing" textLength="88.7004" x="842.4" y="266.8863">PharmacyInventoryItem</text><line style="stroke:#181818;stroke-width:0.3;" x1="825.6" x2="932.3004" y1="273.0082" y2="273.0082"/><line style="stroke:#181818;stroke-width:0.3;" x1="825.6" x2="932.3004" y1="277.8082" y2="277.8082"/></g><!--class Product--><g id="elem_Product"><rect codeLine="47" fill="#F1F1F1" height="62.318" id="Product" rx="1.5" ry="1.5" style="stroke:#181818;stroke-width:0.3;" width="87.9721" x="438.3" y="441.6082"/><ellipse cx="465.2616" cy="451.2082" fill="#ADD1B2" rx="6.6" ry="6.6" style="stroke:#181818;stroke-width:0.6;"/><path d="M466.921,448.7332 Q467.0147,448.602 467.1272,448.5363 Q467.2397,448.4707 467.371,448.4707 Q467.596,448.4707 467.7366,448.6301 Q467.8772,448.7801 467.8772,449.1457 L467.8772,450.0176 Q467.8772,450.3832 467.7366,450.5426 Q467.596,450.702 467.371,450.702 Q467.1647,450.702 467.0429,450.5801 Q466.921,450.4676 466.8554,450.1582 Q466.8272,449.9426 466.7147,449.8301 Q466.5179,449.6051 466.1522,449.4738 Q465.7866,449.3426 465.4116,449.3426 Q464.9522,449.3426 464.5679,449.5395 Q464.1929,449.7363 463.8929,450.1863 Q463.6022,450.6363 463.6022,451.2551 L463.6022,451.9113 Q463.6022,452.652 464.1366,453.1488 Q464.671,453.6363 465.6272,453.6363 Q466.1897,453.6363 466.5835,453.4863 Q466.8179,453.3926 467.071,453.1301 Q467.2304,452.9707 467.3147,452.9238 Q467.4085,452.877 467.5304,452.877 Q467.7272,452.877 467.8772,453.0363 Q468.0366,453.1863 468.0366,453.3926 Q468.0366,453.5988 467.8304,453.8426 Q467.5304,454.1895 467.0522,454.3863 Q466.4054,454.6582 465.6272,454.6582 Q464.7179,454.6582 463.996,454.2832 Q463.4054,453.9832 462.9929,453.3457 Q462.5804,452.6988 462.5804,451.9301 L462.5804,451.2363 Q462.5804,450.4395 462.946,449.7551 Q463.321,449.0613 463.9772,448.6957 Q464.6335,448.3207 465.3741,448.3207 Q465.8147,448.3207 466.1991,448.4238 Q466.5929,448.5176 466.921,448.7332 Z " fill="#000000"/><text fill="#000000" font-family="sans-serif" font-size="8.4" lengthAdjust="spacing" textLength="28.9488" x="477.5616" y="454.6863">Product</text><line style="stroke:#181818;stroke-width:0.3;" x1="438.9" x2="525.6721" y1="460.8082" y2="460.8082"/><ellipse cx="444.9" cy="469.6945" fill="none" rx="1.8" ry="1.8" style="stroke:#038048;stroke-width:0.6;"/><text fill="#000000" font-family="sans-serif" font-size="8.4" lengthAdjust="spacing" textLength="47.6232" x="450.3" y="472.2727">name: String</text><ellipse cx="444.9" cy="480.8672" fill="none" rx="1.8" ry="1.8" style="stroke:#038048;stroke-width:0.6;"/><text fill="#000000" font-family="sans-serif" font-size="8.4" lengthAdjust="spacing" textLength="48.0867" x="450.3" y="483.4453">price: Money</text><ellipse cx="444.9" cy="492.0398" fill="none" rx="1.8" ry="1.8" style="stroke:#038048;stroke-width:0.6;"/><text fill="#000000" font-family="sans-serif" font-size="8.4" lengthAdjust="spacing" textLength="72.3721" x="450.3" y="494.618">id: ProductIdentifier</text><line style="stroke:#181818;stroke-width:0.3;" x1="438.9" x2="525.6721" y1="499.1262" y2="499.1262"/></g><!--class Catalog--><g id="elem_Catalog"><rect codeLine="52" fill="#F1F1F1" height="28.8" id="Catalog" rx="1.5" ry="1.5" style="stroke:#181818;stroke-width:0.3;" width="108.9826" x="307.8" y="458.4082"/><ellipse cx="316.8" cy="468.0082" fill="#B4A7E5" rx="6.6" ry="6.6" style="stroke:#181818;stroke-width:0.6;"/><path d="M317.3719,465.9926 L317.3719,469.9863 L318.4031,469.9863 Q318.7688,469.9863 318.9281,470.127 Q319.0875,470.2676 319.0875,470.502 Q319.0875,470.727 318.9281,470.8676 Q318.7688,471.0082 318.4031,471.0082 L315.3187,471.0082 Q314.9531,471.0082 314.7938,470.8676 Q314.6344,470.727 314.6344,470.4926 Q314.6344,470.2676 314.7938,470.127 Q314.9531,469.9863 315.3187,469.9863 L316.35,469.9863 L316.35,465.9926 L315.3187,465.9926 Q314.9531,465.9926 314.7938,465.852 Q314.6344,465.7113 314.6344,465.477 Q314.6344,465.252 314.7938,465.1113 Q314.9531,464.9707 315.3187,464.9707 L318.4031,464.9707 Q318.7688,464.9707 318.9281,465.1113 Q319.0875,465.252 319.0875,465.477 Q319.0875,465.7113 318.9281,465.852 Q318.7688,465.9926 318.4031,465.9926 L317.3719,465.9926 Z " fill="#000000"/><text fill="#000000" font-family="sans-serif" font-size="8.4" font-style="italic" lengthAdjust="spacing" textLength="28.9529" x="325.2" y="471.4863">Catalog</text><rect fill="#FFFFFF" height="10.7766" style="stroke:#181818;stroke-width:0.6;stroke-dasharray:2.0,2.0;" width="59.6297" x="358.9529" y="456.6082"/><text fill="#000000" font-family="sans-serif" font-size="7.2" font-style="italic" lengthAdjust="spacing" textLength="58.4297" x="359.5529" y="464.9777">T extends Product</text><line style="stroke:#181818;stroke-width:0.3;" x1="308.4" x2="416.1826" y1="477.6082" y2="477.6082"/><line style="stroke:#181818;stroke-width:0.3;" x1="308.4" x2="416.1826" y1="482.4082" y2="482.4082"/></g><!--class MultiInventory--><g id="elem_MultiInventory"><rect fill="#F1F1F1" height="28.8" id="MultiInventory" rx="1.5" ry="1.5" style="stroke:#181818;stroke-width:0.3;" width="71.4867" x="560.7" y="458.4082"/><ellipse cx="569.7" cy="468.0082" fill="#ADD1B2" rx="6.6" ry="6.6" style="stroke:#181818;stroke-width:0.6;"/><path d="M571.3594,465.5332 Q571.4531,465.402 571.5656,465.3363 Q571.6781,465.2707 571.8094,465.2707 Q572.0344,465.2707 572.175,465.4301 Q572.3156,465.5801 572.3156,465.9457 L572.3156,466.8176 Q572.3156,467.1832 572.175,467.3426 Q572.0344,467.502 571.8094,467.502 Q571.6031,467.502 571.4812,467.3801 Q571.3594,467.2676 571.2937,466.9582 Q571.2656,466.7426 571.1531,466.6301 Q570.9563,466.4051 570.5906,466.2738 Q570.225,466.1426 569.85,466.1426 Q569.3906,466.1426 569.0063,466.3395 Q568.6313,466.5363 568.3313,466.9863 Q568.0406,467.4363 568.0406,468.0551 L568.0406,468.7113 Q568.0406,469.452 568.575,469.9488 Q569.1094,470.4363 570.0656,470.4363 Q570.6281,470.4363 571.0219,470.2863 Q571.2563,470.1926 571.5094,469.9301 Q571.6687,469.7707 571.7531,469.7238 Q571.8469,469.677 571.9688,469.677 Q572.1656,469.677 572.3156,469.8363 Q572.475,469.9863 572.475,470.1926 Q572.475,470.3988 572.2688,470.6426 Q571.9688,470.9895 571.4906,471.1863 Q570.8438,471.4582 570.0656,471.4582 Q569.1563,471.4582 568.4344,471.0832 Q567.8438,470.7832 567.4313,470.1457 Q567.0188,469.4988 567.0188,468.7301 L567.0188,468.0363 Q567.0188,467.2395 567.3844,466.5551 Q567.7594,465.8613 568.4156,465.4957 Q569.0719,465.1207 569.8125,465.1207 Q570.2531,465.1207 570.6375,465.2238 Q571.0313,465.3176 571.3594,465.5332 Z " fill="#000000"/><text fill="#000000" font-family="sans-serif" font-size="8.4" lengthAdjust="spacing" textLength="52.2867" x="578.1" y="471.4863">MultiInventory</text><line style="stroke:#181818;stroke-width:0.3;" x1="561.3" x2="631.5867" y1="477.6082" y2="477.6082"/><line style="stroke:#181818;stroke-width:0.3;" x1="561.3" x2="631.5867" y1="482.4082" y2="482.4082"/></g><!--link Medication to Product--><g id="link_Medication_Product"><path codeLine="57" d="M624.756,321.6622 C610.188,332.0002 594.468,342.1762 579,350.4082 C567.234,356.6722 561.132,352.1842 550.8,360.6082 C524.472,382.0762 509.9791,406.671 498.8071,431.625 " fill="none" id="Medication-to-Product" style="stroke:#181818;stroke-width:0.6;"/><polygon fill="none" points="494.394,441.4822,502.0928,433.096,495.5214,430.154,494.394,441.4822" style="stroke:#181818;stroke-width:0.6;"/></g><!--link MedicationCatalog to Catalog--><g id="link_MedicationCatalog_Catalog"><path codeLine="58" d="M294.462,297.7342 C311.76,342.1522 340.2836,415.4041 353.0876,448.2901 " fill="none" id="MedicationCatalog-to-Catalog" style="stroke:#181818;stroke-width:0.6;"/><polygon fill="none" points="357.006,458.3542,356.4423,446.984,349.7329,449.5962,357.006,458.3542" style="stroke:#181818;stroke-width:0.6;"/></g><!--link MixtureIngredient to Product--><g id="link_MixtureIngredient_Product"><path codeLine="59" d="M482.4,299.4802 C482.4,337.8202 482.4,392.2702 482.4,430.6522 " fill="none" id="MixtureIngredient-to-Product" style="stroke:#181818;stroke-width:0.6;"/><polygon fill="none" points="482.4,441.4522,486,430.6522,478.8,430.6522,482.4,441.4522" style="stroke:#181818;stroke-width:0.6;"/></g><!--link IngredientCatalog to Catalog--><g id="link_IngredientCatalog_Catalog"><path codeLine="60" d="M119.892,292.0162 C135.756,309.0502 158.544,332.2822 180.6,350.4082 C233.874,394.1842 293.7158,431.5866 329.4278,452.8626 " fill="none" id="IngredientCatalog-to-Catalog" style="stroke:#181818;stroke-width:0.6;"/><polygon fill="none" points="338.706,458.3902,331.2703,449.7698,327.5852,455.9553,338.706,458.3902" style="stroke:#181818;stroke-width:0.6;"/></g><!--link MedicationController to MedicationCatalog--><g id="link_MedicationController_MedicationCatalog"><path codeLine="62" d="M489.558,134.6242 C439.722,150.3922 380.97,170.7562 358.8,185.4082 C337.29,199.6282 319.9566,218.4341 306.1206,235.9361 " fill="none" id="MedicationController-to-MedicationCatalog" style="stroke:#181818;stroke-width:0.6;stroke-dasharray:7.0,7.0;"/><polygon fill="#181818" points="303.888,238.7602,309.1196,236.0124,305.7485,236.4068,305.3541,233.0356,303.888,238.7602" style="stroke:#181818;stroke-width:0.6;"/><polygon fill="#000000" points="359.1739,192.6459,364.7771,191.5657,363.072,188.4785,359.1739,192.6459" style="stroke:#000000;stroke-width:0.6;"/><text fill="#000000" font-family="sans-serif" font-size="7.8" lengthAdjust="spacing" textLength="16.476" x="367.2" y="194.4252">uses</text></g><!--link MedicationController to IngredientCatalog--><g id="link_MedicationController_IngredientCatalog"><path codeLine="63" d="M489.42,139.2382 C458.82,149.3182 423.39,159.9742 390.6,167.4082 C334.14,180.2002 317.784,171.4582 261.6,185.4082 C224.43,194.6362 214.896,197.7622 180.6,214.8082 C163.602,223.2562 148.7615,232.4557 134.1275,242.3797 " fill="none" id="MedicationController-to-IngredientCatalog" style="stroke:#181818;stroke-width:0.6;stroke-dasharray:7.0,7.0;"/><polygon fill="#181818" points="131.148,244.4002,136.9643,243.3557,133.6309,242.7164,134.2702,239.3831,131.148,244.4002" style="stroke:#181818;stroke-width:0.6;"/><polygon fill="#000000" points="261.7189,192.0319,267.4224,192.2123,266.4392,188.8254,261.7189,192.0319" style="stroke:#000000;stroke-width:0.6;"/><text fill="#000000" font-family="sans-serif" font-size="7.8" lengthAdjust="spacing" textLength="16.476" x="270" y="194.4252">uses</text></g><!--link MedicationController to MultiInventory--><g id="link_MedicationController_MultiInventory"><path codeLine="64" d="M649.272,121.6282 C747.978,136.9462 907.266,168.2662 942.6,214.8082 C979.044,262.8082 977.43,301.2262 942.6,350.4082 C870.33,452.4502 709.006,469.5013 635.962,471.9553 " fill="none" id="MedicationController-to-MultiInventory" style="stroke:#181818;stroke-width:0.6;stroke-dasharray:7.0,7.0;"/><polygon fill="#181818" points="632.364,472.0762,637.8415,474.2935,635.3623,471.9755,637.6804,469.4962,632.364,472.0762" style="stroke:#181818;stroke-width:0.6;"/><polygon fill="#000000" points="971.8861,271.2933,973.8542,265.9372,970.3301,265.8033,971.8861,271.2933" style="stroke:#000000;stroke-width:0.6;"/><text fill="#000000" font-family="sans-serif" font-size="7.8" lengthAdjust="spacing" textLength="16.476" x="977.4" y="271.5252">uses</text></g><!--link MedicationController to Medication--><g id="link_MedicationController_Medication"><path codeLine="65" d="M613.326,167.5762 C625.182,182.9242 635.7615,196.617 647.4435,211.743 " fill="none" id="MedicationController-to-Medication" style="stroke:#181818;stroke-width:0.6;stroke-dasharray:7.0,7.0;"/><polygon fill="#181818" points="649.644,214.5922,648.2428,208.8514,647.8103,212.2179,644.4438,211.7854,649.644,214.5922" style="stroke:#181818;stroke-width:0.6;"/><polygon fill="#000000" points="638.434,193.5697,636.5118,188.1968,633.7208,190.3528,638.434,193.5697" style="stroke:#000000;stroke-width:0.6;"/><text fill="#000000" font-family="sans-serif" font-size="7.8" lengthAdjust="spacing" textLength="25.5785" x="642" y="194.4252">creates</text></g><!--link MedicationController to MixtureIngredient--><g id="link_MedicationController_MixtureIngredient"><path codeLine="66" d="M515.196,167.4982 C511.05,173.3062 507.234,179.3182 504,185.4082 C495.522,201.3742 490.9236,217.3512 487.6956,233.3592 " fill="none" id="MedicationController-to-MixtureIngredient" style="stroke:#181818;stroke-width:0.6;stroke-dasharray:7.0,7.0;"/><polygon fill="#181818" points="486.984,236.8882,490.4041,232.0692,487.577,233.9474,485.6988,231.1203,486.984,236.8882" style="stroke:#181818;stroke-width:0.6;"/><polygon fill="#000000" points="505.8441,193.9639,509.5624,189.6353,506.308,188.2764,505.8441,193.9639" style="stroke:#000000;stroke-width:0.6;"/><text fill="#000000" font-family="sans-serif" font-size="7.8" lengthAdjust="spacing" textLength="25.5785" x="512.4" y="194.4252">creates</text></g><!--link MedicationController to PharmacyInventoryItem--><g id="link_MedicationController_PharmacyInventoryItem"><path codeLine="67" d="M649.308,142.5922 C694.722,161.7082 752.106,187.5382 801,214.8082 C822.21,226.6342 842.1472,240.3918 857.5972,251.6358 " fill="none" id="MedicationController-to-PharmacyInventoryItem" style="stroke:#181818;stroke-width:0.6;stroke-dasharray:7.0,7.0;"/><polygon fill="#181818" points="860.508,253.7542,857.5541,248.6362,858.0824,251.9889,854.7296,252.5172,860.508,253.7542" style="stroke:#181818;stroke-width:0.6;"/><polygon fill="#000000" points="769.4578,192.5869,765.4676,188.5076,763.8319,191.632,769.4578,192.5869" style="stroke:#000000;stroke-width:0.6;"/><text fill="#000000" font-family="sans-serif" font-size="7.8" lengthAdjust="spacing" textLength="25.5785" x="772.2" y="194.4252">creates</text></g><!--link CatalogDataInitializer to MedicationCatalog--><g id="link_CatalogDataInitializer_MedicationCatalog"><path codeLine="69" d="M296.802,144.9442 C293.694,172.9882 289.7412,208.6442 286.8012,235.1282 " fill="none" id="CatalogDataInitializer-to-MedicationCatalog" style="stroke:#181818;stroke-width:0.6;stroke-dasharray:7.0,7.0;"/><polygon fill="#181818" points="286.404,238.7062,289.3851,233.604,286.735,235.7245,284.6144,233.0744,286.404,238.7062" style="stroke:#181818;stroke-width:0.6;"/><polygon fill="#000000" points="294.8693,194.1772,297.2201,188.9776,293.7149,188.5889,294.8693,194.1772" style="stroke:#000000;stroke-width:0.6;"/><text fill="#000000" font-family="sans-serif" font-size="7.8" lengthAdjust="spacing" textLength="16.476" x="300.6" y="194.4252">uses</text></g><!--link CatalogDataInitializer to Medication--><g id="link_CatalogDataInitializer_Medication"><path codeLine="70" d="M380.526,136.6042 C411.204,146.4202 446.58,157.5922 478.8,167.4082 C506.166,175.7482 514.164,174.4702 540.6,185.4082 C560.904,193.8082 578.8319,202.5257 598.5659,213.0857 " fill="none" id="CatalogDataInitializer-to-Medication" style="stroke:#181818;stroke-width:0.6;stroke-dasharray:7.0,7.0;"/><polygon fill="#181818" points="601.74,214.7842,598.1112,210.1203,599.0949,213.3688,595.8465,214.3525,601.74,214.7842" style="stroke:#181818;stroke-width:0.6;"/><polygon fill="#000000" points="571.6309,192.1885,567.0934,188.7282,565.9261,192.0561,571.6309,192.1885" style="stroke:#000000;stroke-width:0.6;"/><text fill="#000000" font-family="sans-serif" font-size="7.8" lengthAdjust="spacing" textLength="25.5785" x="574.2" y="194.4252">creates</text></g><!--link CatalogDataInitializer to IngredientCatalog--><g id="link_CatalogDataInitializer_IngredientCatalog"><path codeLine="71" d="M220.71,138.2242 C194.724,149.9002 167.112,165.4942 145.8,185.4082 C128.22,201.8302 116.8537,223.068 109.1317,241.062 " fill="none" id="CatalogDataInitializer-to-IngredientCatalog" style="stroke:#181818;stroke-width:0.6;stroke-dasharray:7.0,7.0;"/><polygon fill="#181818" points="107.712,244.3702,112.0471,240.3543,108.8951,241.6133,107.6361,238.4614,107.712,244.3702" style="stroke:#181818;stroke-width:0.6;"/><polygon fill="#000000" points="146.594,193.2287,151.7797,190.8473,149.3896,188.254,146.594,193.2287" style="stroke:#000000;stroke-width:0.6;"/><text fill="#000000" font-family="sans-serif" font-size="7.8" lengthAdjust="spacing" textLength="16.476" x="154.2" y="194.4252">uses</text></g><!--link CatalogDataInitializer to MixtureIngredient--><g id="link_CatalogDataInitializer_MixtureIngredient"><path codeLine="72" d="M341.346,144.9562 C356.316,157.6102 373.374,172.1062 388.8,185.4082 C408.372,202.2862 427.3683,218.9366 444.9363,234.4346 " fill="none" id="CatalogDataInitializer-to-MixtureIngredient" style="stroke:#181818;stroke-width:0.6;stroke-dasharray:7.0,7.0;"/><polygon fill="#181818" points="447.636,236.8162,445.1742,231.4441,445.3863,234.8316,441.9988,235.0436,447.636,236.8162" style="stroke:#181818;stroke-width:0.6;"/><polygon fill="#000000" points="407.2703,193.1565,404.3159,188.2745,402.0106,190.9435,407.2703,193.1565" style="stroke:#000000;stroke-width:0.6;"/><text fill="#000000" font-family="sans-serif" font-size="7.8" lengthAdjust="spacing" textLength="25.5785" x="410.4" y="194.4252">creates</text></g><!--SRC=[hLNRZjem47tVh_1RML7y0H6Aj4jLYGTQr5Rgiuc7OArZHux3BhtyUoTW9qu2D86D8aMsPuxFp9oPv2nvOIcGVCTCnf83JPXbKgVazmF19v6iACWAkC1zePNRhfuPsJ2JQ0uH-MwDK6bmaXzHSU_CcGBWnTf0aHYHLvWHsMWjWQdQQ1hSE3a1V2J-kz8A3itI-Ju6pYdOvnEroMEFmF5uxVbTClZI9LaPXZJ_FXm_GbamMvP0m7ZXCZYVVuDS5y9gSuZZ87DunLOe_dpmB4yCy8QlnxkOd3TeSTVjIKh76bZ6DXBE6tyWFq4WkOgPtU4j2kC2ix5aZsLq74DNKYfE5gRa3UimKgS4yMPB0qkL6lG4PLk265RQBiIaKzdp5HrVaUQ6eHLvtzHsunoMOUV-2JzB9QnWKlm2WzGNEiinGOWJjvAUTOKNzRKOc8jkLg9-eeBCYvf3bPcz5jnHTXRT0R7GoXejfQFi5-riZ-Tz0tVliiSpp3IYbzAAfL-txAQasEdN9yu_QvDDLbXIsHyC9qF6UJ2SAAMN32l4XjqWuA0dpWAZKF3DtSZM9gK5ar3a6aM_DIo3LsrUpaxmjT6yJEfkdHA5rctyAScDI73ps8P-J_38EozHw5Pi1PX00asxUTt_8F1cGV7wqhWYZRGxVnWQ_5Lcip_n_-AX3kuQa6_qGNXUC7sytf2xZrz_48tYTpNWfjqeZSc0r4IaBA0WyJse_O1kGBqKVjsnjDsmxy8yq5n44Xppzcx4dbZk1DQ6Ww5hjwp3Nrh8Mj1zx0k_Zhk5SHlkzJoCmHmZjr5ShvRk7m00]--></g></svg>