<?xml version="1.0" encoding="us-ascii" standalone="no"?><svg xmlns="http://www.w3.org/2000/svg" xmlns:xlink="http://www.w3.org/1999/xlink" contentStyleType="text/css" height="1003px" preserveAspectRatio="none" style="width:1230px;height:1003px;background:#FFFFFF;" version="1.1" viewBox="0 0 1230 1003" width="1230px" zoomAndPan="magnify"><defs/><g><!--cluster pharmacy--><g id="cluster_pharmacy"><path d="M8.5,6 L76.5,6 A3.75,3.75 0 0 1 79,8.5 L86,29.6094 L559.5,29.6094 A2.5,2.5 0 0 1 562,32.1094 L562,861.5 A2.5,2.5 0 0 1 559.5,864 L8.5,864 A2.5,2.5 0 0 1 6,861.5 L6,8.5 A2.5,2.5 0 0 1 8.5,6 " fill="none" style="stroke:#000000;stroke-width:1.5;"/><line style="stroke:#000000;stroke-width:1.5;" x1="6" x2="86" y1="29.6094" y2="29.6094"/><text fill="#000000" font-family="sans-serif" font-size="14" font-weight="bold" lengthAdjust="spacing" textLength="67" x="10" y="22.5332">pharmacy</text></g><!--cluster checkout--><g id="cluster_checkout"><path d="M32.5,50 L98.5,50 A3.75,3.75 0 0 1 101,52.5 L108,73.6094 L535.5,73.6094 A2.5,2.5 0 0 1 538,76.1094 L538,611.5 A2.5,2.5 0 0 1 535.5,614 L32.5,614 A2.5,2.5 0 0 1 30,611.5 L30,52.5 A2.5,2.5 0 0 1 32.5,50 " fill="none" style="stroke:#000000;stroke-width:1.5;"/><line style="stroke:#000000;stroke-width:1.5;" x1="30" x2="108" y1="73.6094" y2="73.6094"/><text fill="#000000" font-family="sans-serif" font-size="14" font-weight="bold" lengthAdjust="spacing" textLength="65" x="34" y="66.5332">checkout</text></g><!--cluster catalog--><g id="cluster_catalog"><path d="M47.5,712 L99.5,712 A3.75,3.75 0 0 1 102,714.5 L109,735.6094 L519.5,735.6094 A2.5,2.5 0 0 1 522,738.1094 L522,837.5 A2.5,2.5 0 0 1 519.5,840 L47.5,840 A2.5,2.5 0 0 1 45,837.5 L45,714.5 A2.5,2.5 0 0 1 47.5,712 " fill="none" style="stroke:#000000;stroke-width:1.5;"/><line style="stroke:#000000;stroke-width:1.5;" x1="45" x2="109" y1="735.6094" y2="735.6094"/><text fill="#000000" font-family="sans-serif" font-size="14" font-weight="bold" lengthAdjust="spacing" textLength="51" x="49" y="728.5332">catalog</text></g><!--cluster org--><g id="cluster_org"><path d="M588.5,638 L613.5,638 A3.75,3.75 0 0 1 616,640.5 L623,661.6094 L1220.5,661.6094 A2.5,2.5 0 0 1 1223,664.1094 L1223,993.5 A2.5,2.5 0 0 1 1220.5,996 L588.5,996 A2.5,2.5 0 0 1 586,993.5 L586,640.5 A2.5,2.5 0 0 1 588.5,638 " fill="none" style="stroke:#000000;stroke-width:1.5;"/><line style="stroke:#000000;stroke-width:1.5;" x1="586" x2="623" y1="661.6094" y2="661.6094"/><text fill="#000000" font-family="sans-serif" font-size="14" font-weight="bold" lengthAdjust="spacing" textLength="24" x="590" y="654.5332">org</text></g><!--cluster salespointframework--><g id="cluster_salespointframework"><path d="M612.5,682 L760.5,682 A3.75,3.75 0 0 1 763,684.5 L770,705.6094 L1196.5,705.6094 A2.5,2.5 0 0 1 1199,708.1094 L1199,969.5 A2.5,2.5 0 0 1 1196.5,972 L612.5,972 A2.5,2.5 0 0 1 610,969.5 L610,684.5 A2.5,2.5 0 0 1 612.5,682 " fill="none" style="stroke:#000000;stroke-width:1.5;"/><line style="stroke:#000000;stroke-width:1.5;" x1="610" x2="770" y1="705.6094" y2="705.6094"/><text fill="#000000" font-family="sans-serif" font-size="14" font-weight="bold" lengthAdjust="spacing" textLength="147" x="614" y="698.5332">salespointframework</text></g><!--cluster order--><g id="cluster_order"><path d="M636.5,726 L676.5,726 A3.75,3.75 0 0 1 679,728.5 L686,749.6094 L749.5,749.6094 A2.5,2.5 0 0 1 752,752.1094 L752,945.5 A2.5,2.5 0 0 1 749.5,948 L636.5,948 A2.5,2.5 0 0 1 634,945.5 L634,728.5 A2.5,2.5 0 0 1 636.5,726 " fill="none" style="stroke:#000000;stroke-width:1.5;"/><line style="stroke:#000000;stroke-width:1.5;" x1="634" x2="686" y1="749.6094" y2="749.6094"/><text fill="#000000" font-family="sans-serif" font-size="14" font-weight="bold" lengthAdjust="spacing" textLength="39" x="638" y="742.5332">order</text></g><!--cluster inventory--><g id="cluster_inventory"><path d="M778.5,726 L846.5,726 A3.75,3.75 0 0 1 849,728.5 L856,749.6094 L1172.5,749.6094 A2.5,2.5 0 0 1 1175,752.1094 L1175,823.5 A2.5,2.5 0 0 1 1172.5,826 L778.5,826 A2.5,2.5 0 0 1 776,823.5 L776,728.5 A2.5,2.5 0 0 1 778.5,726 " fill="none" style="stroke:#000000;stroke-width:1.5;"/><line style="stroke:#000000;stroke-width:1.5;" x1="776" x2="856" y1="749.6094" y2="749.6094"/><text fill="#000000" font-family="sans-serif" font-size="14" font-weight="bold" lengthAdjust="spacing" textLength="67" x="780" y="742.5332">inventory</text></g><!--class CheckoutController--><g id="elem_CheckoutController"><rect codeLine="2" fill="#F1F1F1" height="322.8438" id="CheckoutController" rx="2.5" ry="2.5" style="stroke:#181818;stroke-width:0.5;" width="475" x="46.5" y="86"/><ellipse cx="218.75" cy="107.3516" fill="#ADD1B2" rx="11" ry="11" style="stroke:#181818;stroke-width:1.0;"/><path d="M221.5156,103.2266 Q221.6719,103.0078 221.8594,102.8984 Q222.0469,102.7891 222.2656,102.7891 Q222.6406,102.7891 222.875,103.0547 Q223.1094,103.3047 223.1094,103.9141 L223.1094,105.3672 Q223.1094,105.9766 222.875,106.2422 Q222.6406,106.5078 222.2656,106.5078 Q221.9219,106.5078 221.7188,106.3047 Q221.5156,106.1172 221.4063,105.6016 Q221.3594,105.2422 221.1719,105.0547 Q220.8438,104.6797 220.2344,104.4609 Q219.625,104.2422 219,104.2422 Q218.2344,104.2422 217.5938,104.5703 Q216.9688,104.8984 216.4688,105.6484 Q215.9844,106.3984 215.9844,107.4297 L215.9844,108.5234 Q215.9844,109.7578 216.875,110.5859 Q217.7656,111.3984 219.3594,111.3984 Q220.2969,111.3984 220.9531,111.1484 Q221.3438,110.9922 221.7656,110.5547 Q222.0313,110.2891 222.1719,110.2109 Q222.3281,110.1328 222.5313,110.1328 Q222.8594,110.1328 223.1094,110.3984 Q223.375,110.6484 223.375,110.9922 Q223.375,111.3359 223.0313,111.7422 Q222.5313,112.3203 221.7344,112.6484 Q220.6563,113.1016 219.3594,113.1016 Q217.8438,113.1016 216.6406,112.4766 Q215.6563,111.9766 214.9688,110.9141 Q214.2813,109.8359 214.2813,108.5547 L214.2813,107.3984 Q214.2813,106.0703 214.8906,104.9297 Q215.5156,103.7734 216.6094,103.1641 Q217.7031,102.5391 218.9375,102.5391 Q219.6719,102.5391 220.3125,102.7109 Q220.9688,102.8672 221.5156,103.2266 Z " fill="#000000"/><text fill="#000000" font-family="sans-serif" font-size="12" font-style="italic" lengthAdjust="spacing" textLength="68" x="266.25" y="103.457">&#171;Controller&#187;</text><text fill="#000000" font-family="sans-serif" font-size="14" lengthAdjust="spacing" textLength="122" x="239.25" y="120.627">CheckoutController</text><line style="stroke:#181818;stroke-width:0.5;" x1="47.5" x2="520.5" y1="128.7031" y2="128.7031"/><rect fill="none" height="6" style="stroke:#C82930;stroke-width:1.0;" width="6" x="54.5" y="140.0078"/><text fill="#000000" font-family="sans-serif" font-size="14" lengthAdjust="spacing" textLength="171" x="66.5" y="147.2363">catalog: MedicationCatalog</text><rect fill="none" height="6" style="stroke:#C82930;stroke-width:1.0;" width="6" x="54.5" y="157.6172"/><text fill="#000000" font-family="sans-serif" font-size="14" lengthAdjust="spacing" textLength="268" x="66.5" y="164.8457">inventory: UniqueInventory&lt;InventoryItem&gt;</text><rect fill="none" height="6" style="stroke:#C82930;stroke-width:1.0;" width="6" x="54.5" y="175.2266"/><text fill="#000000" font-family="sans-serif" font-size="14" lengthAdjust="spacing" textLength="219" x="66.5" y="182.4551">checkoutService: CheckoutService</text><rect fill="none" height="6" style="stroke:#C82930;stroke-width:1.0;" width="6" x="54.5" y="192.8359"/><text fill="#000000" font-family="sans-serif" font-size="14" lengthAdjust="spacing" textLength="59" x="66.5" y="200.0645">cart: Cart</text><line style="stroke:#181818;stroke-width:0.5;" x1="47.5" x2="520.5" y1="207.1406" y2="207.1406"/><ellipse cx="57.5" cy="221.4453" fill="#84BE84" rx="3" ry="3" style="stroke:#038048;stroke-width:1.0;"/><text fill="#000000" font-family="sans-serif" font-size="14" lengthAdjust="spacing" textLength="246" x="66.5" y="225.6738">initializeCart(): Cart &#171;@ModelAttribute&#187;</text><ellipse cx="57.5" cy="239.0547" fill="#84BE84" rx="3" ry="3" style="stroke:#038048;stroke-width:1.0;"/><text fill="#000000" font-family="sans-serif" font-size="14" lengthAdjust="spacing" textLength="290" x="66.5" y="243.2832">checkoutView(Model): String &#171;@GetMapping&#187;</text><ellipse cx="57.5" cy="256.6641" fill="#84BE84" rx="3" ry="3" style="stroke:#038048;stroke-width:1.0;"/><text fill="#000000" font-family="sans-serif" font-size="14" lengthAdjust="spacing" textLength="420" x="66.5" y="260.8926">addToCart(String, int, RedirectAttributes): String &#171;@PostMapping&#187;</text><ellipse cx="57.5" cy="274.2734" fill="#84BE84" rx="3" ry="3" style="stroke:#038048;stroke-width:1.0;"/><text fill="#000000" font-family="sans-serif" font-size="14" lengthAdjust="spacing" textLength="449" x="66.5" y="278.502">updateQuantity(String, int, RedirectAttributes): String &#171;@PostMapping&#187;</text><ellipse cx="57.5" cy="291.8828" fill="#84BE84" rx="3" ry="3" style="stroke:#038048;stroke-width:1.0;"/><text fill="#000000" font-family="sans-serif" font-size="14" lengthAdjust="spacing" textLength="402" x="66.5" y="296.1113">removeItem(String, RedirectAttributes): String &#171;@PostMapping&#187;</text><ellipse cx="57.5" cy="309.4922" fill="#84BE84" rx="3" ry="3" style="stroke:#038048;stroke-width:1.0;"/><text fill="#000000" font-family="sans-serif" font-size="14" lengthAdjust="spacing" textLength="342" x="66.5" y="313.7207">clearCart(RedirectAttributes): String &#171;@PostMapping&#187;</text><ellipse cx="57.5" cy="327.1016" fill="#84BE84" rx="3" ry="3" style="stroke:#038048;stroke-width:1.0;"/><text fill="#000000" font-family="sans-serif" font-size="14" lengthAdjust="spacing" textLength="362" x="66.5" y="331.3301">finish(String, RedirectAttributes): String &#171;@PostMapping&#187;</text><ellipse cx="57.5" cy="344.7109" fill="#84BE84" rx="3" ry="3" style="stroke:#038048;stroke-width:1.0;"/><text fill="#000000" font-family="sans-serif" font-size="14" lengthAdjust="spacing" textLength="250" x="66.5" y="348.9395">billView(Model): String &#171;@GetMapping&#187;</text><ellipse cx="57.5" cy="362.3203" fill="#84BE84" rx="3" ry="3" style="stroke:#038048;stroke-width:1.0;"/><text fill="#000000" font-family="sans-serif" font-size="14" lengthAdjust="spacing" textLength="438" x="66.5" y="366.5488">backorder(String, String, RedirectAttributes): String &#171;@PostMapping&#187;</text><ellipse cx="57.5" cy="379.9297" fill="#84BE84" rx="3" ry="3" style="stroke:#038048;stroke-width:1.0;"/><text fill="#000000" font-family="sans-serif" font-size="14" lengthAdjust="spacing" textLength="297" x="66.5" y="384.1582">backorderView(Model): String &#171;@GetMapping&#187;</text><rect fill="#F24D5C" height="6" style="stroke:#C82930;stroke-width:1.0;" width="6" x="54.5" y="394.5391"/><text fill="#000000" font-family="sans-serif" font-size="14" lengthAdjust="spacing" textLength="352" x="66.5" y="401.7676">findMedicationByBarcode(String): Optional&lt;Medication&gt;</text></g><!--class CheckoutService--><g id="elem_CheckoutService"><rect codeLine="20" fill="#F1F1F1" height="129.1406" id="CheckoutService" rx="2.5" ry="2.5" style="stroke:#181818;stroke-width:0.5;" width="243" x="278.5" y="469"/><ellipse cx="342.25" cy="490.3516" fill="#ADD1B2" rx="11" ry="11" style="stroke:#181818;stroke-width:1.0;"/><path d="M345.0156,486.2266 Q345.1719,486.0078 345.3594,485.8984 Q345.5469,485.7891 345.7656,485.7891 Q346.1406,485.7891 346.375,486.0547 Q346.6094,486.3047 346.6094,486.9141 L346.6094,488.3672 Q346.6094,488.9766 346.375,489.2422 Q346.1406,489.5078 345.7656,489.5078 Q345.4219,489.5078 345.2188,489.3047 Q345.0156,489.1172 344.9063,488.6016 Q344.8594,488.2422 344.6719,488.0547 Q344.3438,487.6797 343.7344,487.4609 Q343.125,487.2422 342.5,487.2422 Q341.7344,487.2422 341.0938,487.5703 Q340.4688,487.8984 339.9688,488.6484 Q339.4844,489.3984 339.4844,490.4297 L339.4844,491.5234 Q339.4844,492.7578 340.375,493.5859 Q341.2656,494.3984 342.8594,494.3984 Q343.7969,494.3984 344.4531,494.1484 Q344.8438,493.9922 345.2656,493.5547 Q345.5313,493.2891 345.6719,493.2109 Q345.8281,493.1328 346.0313,493.1328 Q346.3594,493.1328 346.6094,493.3984 Q346.875,493.6484 346.875,493.9922 Q346.875,494.3359 346.5313,494.7422 Q346.0313,495.3203 345.2344,495.6484 Q344.1563,496.1016 342.8594,496.1016 Q341.3438,496.1016 340.1406,495.4766 Q339.1563,494.9766 338.4688,493.9141 Q337.7813,492.8359 337.7813,491.5547 L337.7813,490.3984 Q337.7813,489.0703 338.3906,487.9297 Q339.0156,486.7734 340.1094,486.1641 Q341.2031,485.5391 342.4375,485.5391 Q343.1719,485.5391 343.8125,485.7109 Q344.4688,485.8672 345.0156,486.2266 Z " fill="#000000"/><text fill="#000000" font-family="sans-serif" font-size="12" font-style="italic" lengthAdjust="spacing" textLength="55" x="388.75" y="486.457">&#171;Service&#187;</text><text fill="#000000" font-family="sans-serif" font-size="14" lengthAdjust="spacing" textLength="107" x="362.75" y="503.627">CheckoutService</text><line style="stroke:#181818;stroke-width:0.5;" x1="279.5" x2="520.5" y1="511.7031" y2="511.7031"/><rect fill="none" height="6" style="stroke:#C82930;stroke-width:1.0;" width="6" x="286.5" y="523.0078"/><text fill="#000000" font-family="sans-serif" font-size="14" lengthAdjust="spacing" textLength="175" x="298.5" y="530.2363">CO_PAYMENT_MIN: Money</text><rect fill="none" height="6" style="stroke:#C82930;stroke-width:1.0;" width="6" x="286.5" y="540.6172"/><text fill="#000000" font-family="sans-serif" font-size="14" lengthAdjust="spacing" textLength="180" x="298.5" y="547.8457">CO_PAYMENT_MAX: Money</text><rect fill="none" height="6" style="stroke:#C82930;stroke-width:1.0;" width="6" x="286.5" y="558.2266"/><text fill="#000000" font-family="sans-serif" font-size="14" lengthAdjust="spacing" textLength="217" x="298.5" y="565.4551">CO_PAYMENT_RATE: BigDecimal</text><line style="stroke:#181818;stroke-width:0.5;" x1="279.5" x2="520.5" y1="572.5313" y2="572.5313"/><ellipse cx="289.5" cy="586.8359" fill="#84BE84" rx="3" ry="3" style="stroke:#038048;stroke-width:1.0;"/><text fill="#000000" font-family="sans-serif" font-size="14" lengthAdjust="spacing" textLength="216" x="298.5" y="591.0645">calculateCoPayment(Cart): Money</text></g><!--class Medication--><g id="elem_Medication"><rect codeLine="30" fill="#F1F1F1" height="48" id="Medication" rx="2.5" ry="2.5" style="stroke:#181818;stroke-width:0.5;" width="100" x="406" y="762"/><ellipse cx="421" cy="778" fill="#ADD1B2" rx="11" ry="11" style="stroke:#181818;stroke-width:1.0;"/><path d="M423.7656,773.875 Q423.9219,773.6563 424.1094,773.5469 Q424.2969,773.4375 424.5156,773.4375 Q424.8906,773.4375 425.125,773.7031 Q425.3594,773.9531 425.3594,774.5625 L425.3594,776.0156 Q425.3594,776.625 425.125,776.8906 Q424.8906,777.1563 424.5156,777.1563 Q424.1719,777.1563 423.9688,776.9531 Q423.7656,776.7656 423.6563,776.25 Q423.6094,775.8906 423.4219,775.7031 Q423.0938,775.3281 422.4844,775.1094 Q421.875,774.8906 421.25,774.8906 Q420.4844,774.8906 419.8438,775.2188 Q419.2188,775.5469 418.7188,776.2969 Q418.2344,777.0469 418.2344,778.0781 L418.2344,779.1719 Q418.2344,780.4063 419.125,781.2344 Q420.0156,782.0469 421.6094,782.0469 Q422.5469,782.0469 423.2031,781.7969 Q423.5938,781.6406 424.0156,781.2031 Q424.2813,780.9375 424.4219,780.8594 Q424.5781,780.7813 424.7813,780.7813 Q425.1094,780.7813 425.3594,781.0469 Q425.625,781.2969 425.625,781.6406 Q425.625,781.9844 425.2813,782.3906 Q424.7813,782.9688 423.9844,783.2969 Q422.9063,783.75 421.6094,783.75 Q420.0938,783.75 418.8906,783.125 Q417.9063,782.625 417.2188,781.5625 Q416.5313,780.4844 416.5313,779.2031 L416.5313,778.0469 Q416.5313,776.7188 417.1406,775.5781 Q417.7656,774.4219 418.8594,773.8125 Q419.9531,773.1875 421.1875,773.1875 Q421.9219,773.1875 422.5625,773.3594 Q423.2188,773.5156 423.7656,773.875 Z " fill="#000000"/><text fill="#000000" font-family="sans-serif" font-size="14" lengthAdjust="spacing" textLength="68" x="435" y="783.7285">Medication</text><line style="stroke:#181818;stroke-width:0.5;" x1="407" x2="505" y1="794" y2="794"/><line style="stroke:#181818;stroke-width:0.5;" x1="407" x2="505" y1="802" y2="802"/></g><!--class MedicationCatalog--><g id="elem_MedicationCatalog"><rect codeLine="31" fill="#F1F1F1" height="76.3125" id="MedicationCatalog" rx="2.5" ry="2.5" style="stroke:#181818;stroke-width:0.5;" width="310" x="61" y="748"/><ellipse cx="152.75" cy="769.3516" fill="#B4A7E5" rx="11" ry="11" style="stroke:#181818;stroke-width:1.0;"/><path d="M153.7031,765.9922 L153.7031,772.6484 L155.4219,772.6484 Q156.0313,772.6484 156.2969,772.8828 Q156.5625,773.1172 156.5625,773.5078 Q156.5625,773.8828 156.2969,774.1172 Q156.0313,774.3516 155.4219,774.3516 L150.2813,774.3516 Q149.6719,774.3516 149.4063,774.1172 Q149.1406,773.8828 149.1406,773.4922 Q149.1406,773.1172 149.4063,772.8828 Q149.6719,772.6484 150.2813,772.6484 L152,772.6484 L152,765.9922 L150.2813,765.9922 Q149.6719,765.9922 149.4063,765.7578 Q149.1406,765.5234 149.1406,765.1328 Q149.1406,764.7578 149.4063,764.5234 Q149.6719,764.2891 150.2813,764.2891 L155.4219,764.2891 Q156.0313,764.2891 156.2969,764.5234 Q156.5625,764.7578 156.5625,765.1328 Q156.5625,765.5234 156.2969,765.7578 Q156.0313,765.9922 155.4219,765.9922 L153.7031,765.9922 Z " fill="#000000"/><text fill="#000000" font-family="sans-serif" font-size="12" font-style="italic" lengthAdjust="spacing" textLength="73" x="195.75" y="765.457">&#171;Repository&#187;</text><text fill="#000000" font-family="sans-serif" font-size="14" font-style="italic" lengthAdjust="spacing" textLength="118" x="173.25" y="782.627">MedicationCatalog</text><line style="stroke:#181818;stroke-width:0.5;" x1="62" x2="370" y1="790.7031" y2="790.7031"/><line style="stroke:#181818;stroke-width:0.5;" x1="62" x2="370" y1="798.7031" y2="798.7031"/><ellipse cx="72" cy="813.0078" fill="#84BE84" rx="3" ry="3" style="stroke:#038048;stroke-width:1.0;"/><text fill="#000000" font-family="sans-serif" font-size="14" lengthAdjust="spacing" textLength="284" x="81" y="817.2363">findByBarcode(String): Optional&lt;Medication&gt;</text></g><!--class Cart--><g id="elem_Cart"><rect codeLine="38" fill="#F1F1F1" height="48" id="Cart" rx="2.5" ry="2.5" style="stroke:#181818;stroke-width:0.5;" width="59" x="650.5" y="762"/><ellipse cx="665.5" cy="778" fill="#B4A7E5" rx="11" ry="11" style="stroke:#181818;stroke-width:1.0;"/><path d="M666.4531,774.6406 L666.4531,781.2969 L668.1719,781.2969 Q668.7813,781.2969 669.0469,781.5313 Q669.3125,781.7656 669.3125,782.1563 Q669.3125,782.5313 669.0469,782.7656 Q668.7813,783 668.1719,783 L663.0313,783 Q662.4219,783 662.1563,782.7656 Q661.8906,782.5313 661.8906,782.1406 Q661.8906,781.7656 662.1563,781.5313 Q662.4219,781.2969 663.0313,781.2969 L664.75,781.2969 L664.75,774.6406 L663.0313,774.6406 Q662.4219,774.6406 662.1563,774.4063 Q661.8906,774.1719 661.8906,773.7813 Q661.8906,773.4063 662.1563,773.1719 Q662.4219,772.9375 663.0313,772.9375 L668.1719,772.9375 Q668.7813,772.9375 669.0469,773.1719 Q669.3125,773.4063 669.3125,773.7813 Q669.3125,774.1719 669.0469,774.4063 Q668.7813,774.6406 668.1719,774.6406 L666.4531,774.6406 Z " fill="#000000"/><text fill="#000000" font-family="sans-serif" font-size="14" font-style="italic" lengthAdjust="spacing" textLength="27" x="679.5" y="783.7285">Cart</text><line style="stroke:#181818;stroke-width:0.5;" x1="651.5" x2="708.5" y1="794" y2="794"/><line style="stroke:#181818;stroke-width:0.5;" x1="651.5" x2="708.5" y1="802" y2="802"/></g><!--class CartItem--><g id="elem_CartItem"><rect codeLine="39" fill="#F1F1F1" height="48" id="CartItem" rx="2.5" ry="2.5" style="stroke:#181818;stroke-width:0.5;" width="85" x="650.5" y="884"/><ellipse cx="665.5" cy="900" fill="#ADD1B2" rx="11" ry="11" style="stroke:#181818;stroke-width:1.0;"/><path d="M668.2656,895.875 Q668.4219,895.6563 668.6094,895.5469 Q668.7969,895.4375 669.0156,895.4375 Q669.3906,895.4375 669.625,895.7031 Q669.8594,895.9531 669.8594,896.5625 L669.8594,898.0156 Q669.8594,898.625 669.625,898.8906 Q669.3906,899.1563 669.0156,899.1563 Q668.6719,899.1563 668.4688,898.9531 Q668.2656,898.7656 668.1563,898.25 Q668.1094,897.8906 667.9219,897.7031 Q667.5938,897.3281 666.9844,897.1094 Q666.375,896.8906 665.75,896.8906 Q664.9844,896.8906 664.3438,897.2188 Q663.7188,897.5469 663.2188,898.2969 Q662.7344,899.0469 662.7344,900.0781 L662.7344,901.1719 Q662.7344,902.4063 663.625,903.2344 Q664.5156,904.0469 666.1094,904.0469 Q667.0469,904.0469 667.7031,903.7969 Q668.0938,903.6406 668.5156,903.2031 Q668.7813,902.9375 668.9219,902.8594 Q669.0781,902.7813 669.2813,902.7813 Q669.6094,902.7813 669.8594,903.0469 Q670.125,903.2969 670.125,903.6406 Q670.125,903.9844 669.7813,904.3906 Q669.2813,904.9688 668.4844,905.2969 Q667.4063,905.75 666.1094,905.75 Q664.5938,905.75 663.3906,905.125 Q662.4063,904.625 661.7188,903.5625 Q661.0313,902.4844 661.0313,901.2031 L661.0313,900.0469 Q661.0313,898.7188 661.6406,897.5781 Q662.2656,896.4219 663.3594,895.8125 Q664.4531,895.1875 665.6875,895.1875 Q666.4219,895.1875 667.0625,895.3594 Q667.7188,895.5156 668.2656,895.875 Z " fill="#000000"/><text fill="#000000" font-family="sans-serif" font-size="14" lengthAdjust="spacing" textLength="53" x="679.5" y="905.7285">CartItem</text><line style="stroke:#181818;stroke-width:0.5;" x1="651.5" x2="734.5" y1="916" y2="916"/><line style="stroke:#181818;stroke-width:0.5;" x1="651.5" x2="734.5" y1="924" y2="924"/></g><!--class UniqueInventory--><g id="elem_UniqueInventory"><rect codeLine="43" fill="#F1F1F1" height="48" id="UniqueInventory" rx="2.5" ry="2.5" style="stroke:#181818;stroke-width:0.5;" width="215" x="943.5" y="762"/><ellipse cx="958.5" cy="778" fill="#B4A7E5" rx="11" ry="11" style="stroke:#181818;stroke-width:1.0;"/><path d="M959.4531,774.6406 L959.4531,781.2969 L961.1719,781.2969 Q961.7813,781.2969 962.0469,781.5313 Q962.3125,781.7656 962.3125,782.1563 Q962.3125,782.5313 962.0469,782.7656 Q961.7813,783 961.1719,783 L956.0313,783 Q955.4219,783 955.1563,782.7656 Q954.8906,782.5313 954.8906,782.1406 Q954.8906,781.7656 955.1563,781.5313 Q955.4219,781.2969 956.0313,781.2969 L957.75,781.2969 L957.75,774.6406 L956.0313,774.6406 Q955.4219,774.6406 955.1563,774.4063 Q954.8906,774.1719 954.8906,773.7813 Q954.8906,773.4063 955.1563,773.1719 Q955.4219,772.9375 956.0313,772.9375 L961.1719,772.9375 Q961.7813,772.9375 962.0469,773.1719 Q962.3125,773.4063 962.3125,773.7813 Q962.3125,774.1719 962.0469,774.4063 Q961.7813,774.6406 961.1719,774.6406 L959.4531,774.6406 Z " fill="#000000"/><text fill="#000000" font-family="sans-serif" font-size="14" font-style="italic" lengthAdjust="spacing" textLength="103" x="972.5" y="783.7285">UniqueInventory</text><rect fill="#FFFFFF" height="17.0938" style="stroke:#181818;stroke-width:1.0;stroke-dasharray:2.0,2.0;" width="78" x="1083.5" y="759"/><text fill="#000000" font-family="sans-serif" font-size="12" font-style="italic" lengthAdjust="spacing" textLength="76" x="1084.5" y="772.457">InventoryItem</text><line style="stroke:#181818;stroke-width:0.5;" x1="944.5" x2="1157.5" y1="794" y2="794"/><line style="stroke:#181818;stroke-width:0.5;" x1="944.5" x2="1157.5" y1="802" y2="802"/></g><!--class InventoryItem--><g id="elem_InventoryItem"><rect codeLine="44" fill="#F1F1F1" height="48" id="InventoryItem" rx="2.5" ry="2.5" style="stroke:#181818;stroke-width:0.5;" width="116" x="792" y="762"/><ellipse cx="807" cy="778" fill="#ADD1B2" rx="11" ry="11" style="stroke:#181818;stroke-width:1.0;"/><path d="M809.7656,773.875 Q809.9219,773.6563 810.1094,773.5469 Q810.2969,773.4375 810.5156,773.4375 Q810.8906,773.4375 811.125,773.7031 Q811.3594,773.9531 811.3594,774.5625 L811.3594,776.0156 Q811.3594,776.625 811.125,776.8906 Q810.8906,777.1563 810.5156,777.1563 Q810.1719,777.1563 809.9688,776.9531 Q809.7656,776.7656 809.6563,776.25 Q809.6094,775.8906 809.4219,775.7031 Q809.0938,775.3281 808.4844,775.1094 Q807.875,774.8906 807.25,774.8906 Q806.4844,774.8906 805.8438,775.2188 Q805.2188,775.5469 804.7188,776.2969 Q804.2344,777.0469 804.2344,778.0781 L804.2344,779.1719 Q804.2344,780.4063 805.125,781.2344 Q806.0156,782.0469 807.6094,782.0469 Q808.5469,782.0469 809.2031,781.7969 Q809.5938,781.6406 810.0156,781.2031 Q810.2813,780.9375 810.4219,780.8594 Q810.5781,780.7813 810.7813,780.7813 Q811.1094,780.7813 811.3594,781.0469 Q811.625,781.2969 811.625,781.6406 Q811.625,781.9844 811.2813,782.3906 Q810.7813,782.9688 809.9844,783.2969 Q808.9063,783.75 807.6094,783.75 Q806.0938,783.75 804.8906,783.125 Q803.9063,782.625 803.2188,781.5625 Q802.5313,780.4844 802.5313,779.2031 L802.5313,778.0469 Q802.5313,776.7188 803.1406,775.5781 Q803.7656,774.4219 804.8594,773.8125 Q805.9531,773.1875 807.1875,773.1875 Q807.9219,773.1875 808.5625,773.3594 Q809.2188,773.5156 809.7656,773.875 Z " fill="#000000"/><text fill="#000000" font-family="sans-serif" font-size="14" lengthAdjust="spacing" textLength="84" x="821" y="783.7285">InventoryItem</text><line style="stroke:#181818;stroke-width:0.5;" x1="793" x2="907" y1="794" y2="794"/><line style="stroke:#181818;stroke-width:0.5;" x1="793" x2="907" y1="802" y2="802"/></g><!--link CheckoutController to CheckoutService--><g id="link_CheckoutController_CheckoutService"><path codeLine="27" d="M354.1656,420.2798 C362.7756,441.3698 364.3514,445.2254 371.7314,463.2954 " fill="none" id="CheckoutController-CheckoutService" style="stroke:#181818;stroke-width:1.0;"/><polygon fill="none" points="349.63,409.17,348.1945,416.2368,354.1656,420.2798,355.6011,413.2131,349.63,409.17" style="stroke:#181818;stroke-width:1.0;"/><polygon fill="#181818" points="374,468.85,374.3002,459.0057,372.1095,464.2212,366.8941,462.0305,374,468.85" style="stroke:#181818;stroke-width:1.0;"/></g><!--link Cart to CartItem--><g id="link_Cart_CartItem"><path codeLine="40" d="M683.8013,822.0703 C686.1013,843.3203 687.5535,856.7449 689.8535,877.9649 " fill="none" id="Cart-CartItem" style="stroke:#181818;stroke-width:1.0;"/><polygon fill="#181818" points="682.51,810.14,679.1789,816.5356,683.8013,822.0703,687.1324,815.6747,682.51,810.14" style="stroke:#181818;stroke-width:1.0;"/><polygon fill="#181818" points="690.5,883.93,693.5069,874.5514,689.9612,878.9591,685.5535,875.4134,690.5,883.93" style="stroke:#181818;stroke-width:1.0;"/><text fill="#000000" font-family="sans-serif" font-size="13" lengthAdjust="spacing" textLength="7" x="675.2687" y="831.5121">1</text><text fill="#000000" font-family="sans-serif" font-size="13" lengthAdjust="spacing" textLength="5" x="684.2188" y="873.2522">*</text></g><!--link CheckoutController to MedicationCatalog--><g id="link_CheckoutController_MedicationCatalog"><path codeLine="48" d="M263.64,409.1 C248.66,527.34 230.1839,673.0775 221.4539,742.0075 " fill="none" id="CheckoutController-to-MedicationCatalog" style="stroke:#181818;stroke-width:1.0;"/><polygon fill="#181818" points="220.7,747.96,225.7991,739.5339,221.3282,742.9996,217.8625,738.5287,220.7,747.96" style="stroke:#181818;stroke-width:1.0;"/></g><!--link CheckoutController to UniqueInventory--><g id="link_CheckoutController_UniqueInventory"><path codeLine="49" d="M521.61,363.38 C648.85,431.15 804.03,524.28 926,630 C972.5,670.3 1011.4539,724.4996 1032.8939,756.8296 " fill="none" id="CheckoutController-to-UniqueInventory" style="stroke:#181818;stroke-width:1.0;"/><polygon fill="#181818" points="1036.21,761.83,1034.5695,752.1187,1033.4466,757.663,1027.9023,756.5401,1036.21,761.83" style="stroke:#181818;stroke-width:1.0;"/></g><!--link CheckoutController to Cart--><g id="link_CheckoutController_Cart"><path codeLine="50" d="M487.4,409.16 C506.04,428.24 523.65,448.33 539,469 C611.35,566.42 655.6151,701.0944 671.7851,756.0044 " fill="none" id="CheckoutController-to-Cart" style="stroke:#181818;stroke-width:1.0;"/><polygon fill="#181818" points="673.48,761.76,674.7747,751.9966,672.0676,756.9636,667.1005,754.2565,673.48,761.76" style="stroke:#181818;stroke-width:1.0;"/></g><!--link CheckoutService to Cart--><g id="link_CheckoutService_Cart"><path codeLine="51" d="M483.7,598.01 C496.72,608.46 509.87,619.36 522,630 C572.7,674.47 623.9803,726.486 653.8403,757.526 " fill="none" id="CheckoutService-to-Cart" style="stroke:#181818;stroke-width:1.0;"/><polygon fill="#181818" points="658,761.85,654.6432,752.5908,654.5336,758.2466,648.8778,758.1371,658,761.85" style="stroke:#181818;stroke-width:1.0;"/></g><!--link CheckoutService to Medication--><g id="link_CheckoutService_Medication"><path codeLine="52" d="M414.2,598.04 C426.16,651.52 441.2805,719.1646 449.5305,756.0546 " fill="none" id="CheckoutService-to-Medication" style="stroke:#181818;stroke-width:1.0;"/><polygon fill="#181818" points="450.84,761.91,452.7794,752.254,449.7488,757.0305,444.9722,753.9999,450.84,761.91" style="stroke:#181818;stroke-width:1.0;"/></g><!--SRC=[hLLBRzf04BxxLwmuaJHOwXKXg-165GSdbD2gFKN3Ue0LQw-xNXEv5V-zixQnpIij8JvOtdbyyytCpZW1leObicG5EWAUkto5VAqom_uuZ1uk8KsPNmbz5Hkjf4JD1eFcu7cLjNrwZ8C1gPPz5c0ew21Kx9UYbf68DnWRfVC- -nQBNncETu91_JKs67bju8h64-gDuDYlULM2FGxQa9xUjV03nHH6W1I_qIgwDwK1fV8fK27AeJ5Qp3E3djTosWNzBl2bMzYHtnDPnalh-GLD04b2fpql2CEPAgAKfdSKtDonALL48pTrg7GFRABIasXP4eB1hnd4HfZyNI0rHcg3ji8rt1kHk4JGHQfl15XGNzBLjJJcGihBUZIdkwzqYBeEVIs57U0bF7es_x0PbL4-0it9js9528-9LO0SD5Qb_zOvCQJLC530wkjWFFt7vydmPt3_C7iEnWyqfIh6_8n- -EDL_NGuk- -paLX-HYuYaErR0P9dacwjhoQGHpJGNNj7Rjfu5VqJsqNrUjxHT6-Tv6XRbNkbpAyiGrCZAwCHGRq0AiVHCg82JJ5HgR2hfbsZuaQ65_HXIzHgRaeltHGafecYu0iD4RuelRRmZGdTaJ9Ums-tgwfcqiaEfvKKIwhpiSDkRLKwjvsMTjkWrXlr4FdV-xMCkITtggmE_mlkYMvPMeSjSO-N_tzZdIcXMsVe7gHqFNJH4hVemNcitMIzAz0hXNESlm00]--></g></svg>