<?xml version="1.0" encoding="us-ascii" standalone="no"?><svg xmlns="http://www.w3.org/2000/svg" xmlns:xlink="http://www.w3.org/1999/xlink" contentStyleType="text/css" height="899px" preserveAspectRatio="none" style="width:1121px;height:899px;background:#FFFFFF;" version="1.1" viewBox="0 0 1121 899" width="1121px" zoomAndPan="magnify"><defs/><g><rect fill="#FFFFFF" height="480.5938" style="stroke:#181818;stroke-width:1.0;" width="10" x="536" y="161.6641"/><rect fill="#FFFFFF" height="104.0547" style="stroke:#181818;stroke-width:1.0;" width="10" x="536" y="664.6094"/><rect fill="#FFFFFF" height="30.3516" style="stroke:#181818;stroke-width:1.0;" width="10" x="771" y="192.0156"/><rect fill="#FFFFFF" height="30.3516" style="stroke:#181818;stroke-width:1.0;" width="10" x="904.5" y="278.0703"/><rect fill="#FFFFFF" height="30.3516" style="stroke:#181818;stroke-width:1.0;" width="10" x="1031" y="450.8281"/><rect fill="none" height="397.8906" style="stroke:#000000;stroke-width:1.5;" width="897" x="217.5" y="237.3672"/><rect fill="none" height="171.9453" style="stroke:#000000;stroke-width:1.5;" width="877" x="227.5" y="410.125"/><line style="stroke:#181818;stroke-width:0.5;stroke-dasharray:5.0,5.0;" x1="36" x2="36" y1="82.6094" y2="817.0156"/><line style="stroke:#181818;stroke-width:0.5;stroke-dasharray:5.0,5.0;" x1="269.5" x2="269.5" y1="82.6094" y2="817.0156"/><line style="stroke:#181818;stroke-width:0.5;stroke-dasharray:5.0,5.0;" x1="541" x2="541" y1="82.6094" y2="817.0156"/><line style="stroke:#181818;stroke-width:0.5;stroke-dasharray:5.0,5.0;" x1="775.5" x2="775.5" y1="82.6094" y2="817.0156"/><line style="stroke:#181818;stroke-width:0.5;stroke-dasharray:5.0,5.0;" x1="909.5" x2="909.5" y1="82.6094" y2="817.0156"/><line style="stroke:#181818;stroke-width:0.5;stroke-dasharray:5.0,5.0;" x1="1035.5" x2="1035.5" y1="82.6094" y2="817.0156"/><text fill="#000000" font-family="sans-serif" font-size="14" lengthAdjust="spacing" textLength="56" x="5" y="79.5332">Benutzer</text><ellipse cx="36" cy="13.5" fill="#E2E2F0" rx="8" ry="8" style="stroke:#181818;stroke-width:0.5;"/><path d="M36,21.5 L36,48.5 M23,29.5 L49,29.5 M36,48.5 L23,63.5 M36,48.5 L49,63.5 " fill="none" style="stroke:#181818;stroke-width:0.5;"/><text fill="#000000" font-family="sans-serif" font-size="14" lengthAdjust="spacing" textLength="56" x="5" y="830.5488">Benutzer</text><ellipse cx="36" cy="842.125" fill="#E2E2F0" rx="8" ry="8" style="stroke:#181818;stroke-width:0.5;"/><path d="M36,850.125 L36,877.125 M23,858.125 L49,858.125 M36,877.125 L23,892.125 M36,877.125 L49,892.125 " fill="none" style="stroke:#181818;stroke-width:0.5;"/><rect fill="#E2E2F0" height="31.6094" rx="2.5" ry="2.5" style="stroke:#181818;stroke-width:0.5;" width="65" x="237.5" y="50"/><text fill="#000000" font-family="sans-serif" font-size="14" lengthAdjust="spacing" textLength="51" x="244.5" y="71.5332">Browser</text><rect fill="#E2E2F0" height="31.6094" rx="2.5" ry="2.5" style="stroke:#181818;stroke-width:0.5;" width="65" x="237.5" y="816.0156"/><text fill="#000000" font-family="sans-serif" font-size="14" lengthAdjust="spacing" textLength="51" x="244.5" y="837.5488">Browser</text><rect fill="#E2E2F0" height="49.2188" rx="2.5" ry="2.5" style="stroke:#181818;stroke-width:0.5;" width="136" x="473" y="32.3906"/><text fill="#000000" font-family="sans-serif" font-size="14" lengthAdjust="spacing" textLength="78" x="502" y="53.9238">&#171;Controller&#187;</text><text fill="#000000" font-family="sans-serif" font-size="14" lengthAdjust="spacing" textLength="122" x="480" y="71.5332">CheckoutController</text><rect fill="#E2E2F0" height="49.2188" rx="2.5" ry="2.5" style="stroke:#181818;stroke-width:0.5;" width="136" x="473" y="816.0156"/><text fill="#000000" font-family="sans-serif" font-size="14" lengthAdjust="spacing" textLength="78" x="502" y="837.5488">&#171;Controller&#187;</text><text fill="#000000" font-family="sans-serif" font-size="14" lengthAdjust="spacing" textLength="122" x="480" y="855.1582">CheckoutController</text><rect fill="#E2E2F0" height="49.2188" rx="2.5" ry="2.5" style="stroke:#181818;stroke-width:0.5;" width="131" x="710.5" y="32.3906"/><text fill="#000000" font-family="sans-serif" font-size="14" lengthAdjust="spacing" textLength="84" x="734" y="53.9238">&#171;Repository&#187;</text><text fill="#000000" font-family="sans-serif" font-size="14" lengthAdjust="spacing" textLength="117" x="717.5" y="71.5332">MedicationCatalog</text><rect fill="#E2E2F0" height="49.2188" rx="2.5" ry="2.5" style="stroke:#181818;stroke-width:0.5;" width="131" x="710.5" y="816.0156"/><text fill="#000000" font-family="sans-serif" font-size="14" lengthAdjust="spacing" textLength="84" x="734" y="837.5488">&#171;Repository&#187;</text><text fill="#000000" font-family="sans-serif" font-size="14" lengthAdjust="spacing" textLength="117" x="717.5" y="855.1582">MedicationCatalog</text><rect fill="#E2E2F0" height="49.2188" rx="2.5" ry="2.5" style="stroke:#181818;stroke-width:0.5;" width="116" x="851.5" y="32.3906"/><text fill="#000000" font-family="sans-serif" font-size="14" lengthAdjust="spacing" textLength="49" x="885" y="53.9238">&#171;Bean&#187;</text><text fill="#000000" font-family="sans-serif" font-size="14" lengthAdjust="spacing" textLength="102" x="858.5" y="71.5332">UniqueInventory</text><rect fill="#E2E2F0" height="49.2188" rx="2.5" ry="2.5" style="stroke:#181818;stroke-width:0.5;" width="116" x="851.5" y="816.0156"/><text fill="#000000" font-family="sans-serif" font-size="14" lengthAdjust="spacing" textLength="49" x="885" y="837.5488">&#171;Bean&#187;</text><text fill="#000000" font-family="sans-serif" font-size="14" lengthAdjust="spacing" textLength="102" x="858.5" y="855.1582">UniqueInventory</text><rect fill="#E2E2F0" height="49.2188" rx="2.5" ry="2.5" style="stroke:#181818;stroke-width:0.5;" width="117" x="977.5" y="32.3906"/><text fill="#000000" font-family="sans-serif" font-size="14" lengthAdjust="spacing" textLength="103" x="984.5" y="53.9238">&#171;Session Bean&#187;</text><text fill="#000000" font-family="sans-serif" font-size="14" lengthAdjust="spacing" textLength="27" x="1022.5" y="71.5332">Cart</text><rect fill="#E2E2F0" height="49.2188" rx="2.5" ry="2.5" style="stroke:#181818;stroke-width:0.5;" width="117" x="977.5" y="816.0156"/><text fill="#000000" font-family="sans-serif" font-size="14" lengthAdjust="spacing" textLength="103" x="984.5" y="837.5488">&#171;Session Bean&#187;</text><text fill="#000000" font-family="sans-serif" font-size="14" lengthAdjust="spacing" textLength="27" x="1022.5" y="855.1582">Cart</text><rect fill="#FFFFFF" height="480.5938" style="stroke:#181818;stroke-width:1.0;" width="10" x="536" y="161.6641"/><rect fill="#FFFFFF" height="104.0547" style="stroke:#181818;stroke-width:1.0;" width="10" x="536" y="664.6094"/><rect fill="#FFFFFF" height="30.3516" style="stroke:#181818;stroke-width:1.0;" width="10" x="771" y="192.0156"/><rect fill="#FFFFFF" height="30.3516" style="stroke:#181818;stroke-width:1.0;" width="10" x="904.5" y="278.0703"/><rect fill="#FFFFFF" height="30.3516" style="stroke:#181818;stroke-width:1.0;" width="10" x="1031" y="450.8281"/><polygon fill="#181818" points="258,127.3125,268,131.3125,258,135.3125,262,131.3125" style="stroke:#181818;stroke-width:1.0;"/><line style="stroke:#181818;stroke-width:1.0;" x1="36" x2="264" y1="131.3125" y2="131.3125"/><text fill="#000000" font-family="sans-serif" font-size="13" lengthAdjust="spacing" textLength="156" x="43" y="110.1045">Gibt Barcode + Menge ein,</text><text fill="#000000" font-family="sans-serif" font-size="13" lengthAdjust="spacing" textLength="109" x="43" y="126.4561">klickt "Hinzuf&#252;gen"</text><polygon fill="#181818" points="524,157.6641,534,161.6641,524,165.6641,528,161.6641" style="stroke:#181818;stroke-width:1.0;"/><line style="stroke:#181818;stroke-width:1.0;" x1="270" x2="530" y1="161.6641" y2="161.6641"/><text fill="#000000" font-family="sans-serif" font-size="13" lengthAdjust="spacing" textLength="233" x="277" y="156.8076">POST /checkout/add (barcode, quantity)</text><polygon fill="#181818" points="759,188.0156,769,192.0156,759,196.0156,763,192.0156" style="stroke:#181818;stroke-width:1.0;"/><line style="stroke:#181818;stroke-width:1.0;" x1="546" x2="765" y1="192.0156" y2="192.0156"/><text fill="#000000" font-family="sans-serif" font-size="13" lengthAdjust="spacing" textLength="138" x="553" y="187.1592">findByBarcode(barcode)</text><polygon fill="#181818" points="557,218.3672,547,222.3672,557,226.3672,553,222.3672" style="stroke:#181818;stroke-width:1.0;"/><line style="stroke:#181818;stroke-width:1.0;stroke-dasharray:2.0,2.0;" x1="551" x2="775" y1="222.3672" y2="222.3672"/><text fill="#000000" font-family="sans-serif" font-size="13" lengthAdjust="spacing" textLength="127" x="563" y="217.5107">Optional&lt;Medication&gt;</text><path d="M217.5,237.3672 L278.5,237.3672 L278.5,245.7188 L268.5,255.7188 L217.5,255.7188 L217.5,237.3672 " fill="#EEEEEE" style="stroke:#000000;stroke-width:1.5;"/><rect fill="none" height="397.8906" style="stroke:#000000;stroke-width:1.5;" width="897" x="217.5" y="237.3672"/><text fill="#000000" font-family="sans-serif" font-size="13" font-weight="bold" lengthAdjust="spacing" textLength="16" x="232.5" y="251.8623">alt</text><text fill="#000000" font-family="sans-serif" font-size="11" font-weight="bold" lengthAdjust="spacing" textLength="133" x="293.5" y="250.7861">[Medikament gefunden]</text><polygon fill="#181818" points="892.5,274.0703,902.5,278.0703,892.5,282.0703,896.5,278.0703" style="stroke:#181818;stroke-width:1.0;"/><line style="stroke:#181818;stroke-width:1.0;" x1="546" x2="898.5" y1="278.0703" y2="278.0703"/><text fill="#000000" font-family="sans-serif" font-size="13" lengthAdjust="spacing" textLength="152" x="553" y="273.2139">findByProduct(medication)</text><polygon fill="#181818" points="557,304.4219,547,308.4219,557,312.4219,553,308.4219" style="stroke:#181818;stroke-width:1.0;"/><line style="stroke:#181818;stroke-width:1.0;stroke-dasharray:2.0,2.0;" x1="551" x2="908.5" y1="308.4219" y2="308.4219"/><text fill="#000000" font-family="sans-serif" font-size="13" lengthAdjust="spacing" textLength="158" x="563" y="303.5654">Streamable&lt;InventoryItem&gt;</text><line style="stroke:#181818;stroke-width:1.0;" x1="546" x2="588" y1="338.7734" y2="338.7734"/><line style="stroke:#181818;stroke-width:1.0;" x1="588" x2="588" y1="338.7734" y2="351.7734"/><line style="stroke:#181818;stroke-width:1.0;" x1="547" x2="588" y1="351.7734" y2="351.7734"/><polygon fill="#181818" points="557,347.7734,547,351.7734,557,355.7734,553,351.7734" style="stroke:#181818;stroke-width:1.0;"/><text fill="#000000" font-family="sans-serif" font-size="13" lengthAdjust="spacing" textLength="103" x="553" y="333.917">getTotalQuantity()</text><line style="stroke:#181818;stroke-width:1.0;" x1="546" x2="588" y1="382.125" y2="382.125"/><line style="stroke:#181818;stroke-width:1.0;" x1="588" x2="588" y1="382.125" y2="395.125"/><line style="stroke:#181818;stroke-width:1.0;" x1="547" x2="588" y1="395.125" y2="395.125"/><polygon fill="#181818" points="557,391.125,547,395.125,557,399.125,553,395.125" style="stroke:#181818;stroke-width:1.0;"/><text fill="#000000" font-family="sans-serif" font-size="13" lengthAdjust="spacing" textLength="183" x="553" y="377.2686">Vergleiche Bestand &gt;= quantity</text><path d="M227.5,410.125 L288.5,410.125 L288.5,418.4766 L278.5,428.4766 L227.5,428.4766 L227.5,410.125 " fill="#EEEEEE" style="stroke:#000000;stroke-width:1.5;"/><rect fill="none" height="171.9453" style="stroke:#000000;stroke-width:1.5;" width="877" x="227.5" y="410.125"/><text fill="#000000" font-family="sans-serif" font-size="13" font-weight="bold" lengthAdjust="spacing" textLength="16" x="242.5" y="424.6201">alt</text><text fill="#000000" font-family="sans-serif" font-size="11" font-weight="bold" lengthAdjust="spacing" textLength="125" x="303.5" y="423.5439">[Bestand ausreichend]</text><polygon fill="#181818" points="1019,446.8281,1029,450.8281,1019,454.8281,1023,450.8281" style="stroke:#181818;stroke-width:1.0;"/><line style="stroke:#181818;stroke-width:1.0;" x1="546" x2="1025" y1="450.8281" y2="450.8281"/><text fill="#000000" font-family="sans-serif" font-size="13" lengthAdjust="spacing" textLength="226" x="553" y="445.9717">addOrUpdateItem(medication, quantity)</text><polygon fill="#181818" points="557,477.1797,547,481.1797,557,485.1797,553,481.1797" style="stroke:#181818;stroke-width:1.0;"/><line style="stroke:#181818;stroke-width:1.0;stroke-dasharray:2.0,2.0;" x1="551" x2="1035" y1="481.1797" y2="481.1797"/><text fill="#000000" font-family="sans-serif" font-size="13" lengthAdjust="spacing" textLength="22" x="563" y="476.3232">void</text><polygon fill="#181818" points="281,507.5313,271,511.5313,281,515.5313,277,511.5313" style="stroke:#181818;stroke-width:1.0;"/><line style="stroke:#181818;stroke-width:1.0;" x1="275" x2="535" y1="511.5313" y2="511.5313"/><text fill="#000000" font-family="sans-serif" font-size="13" lengthAdjust="spacing" textLength="242" x="287" y="506.6748">redirect:/checkout (mit SuccessMessage)</text><line style="stroke:#000000;stroke-width:1.0;stroke-dasharray:2.0,2.0;" x1="227.5" x2="1104.5" y1="520.5313" y2="520.5313"/><text fill="#000000" font-family="sans-serif" font-size="11" font-weight="bold" lengthAdjust="spacing" textLength="155" x="232.5" y="531.9502">[Bestand nicht ausreichend]</text><polygon fill="#181818" points="281,570.0703,271,574.0703,281,578.0703,277,574.0703" style="stroke:#181818;stroke-width:1.0;"/><line style="stroke:#181818;stroke-width:1.0;" x1="275" x2="535" y1="574.0703" y2="574.0703"/><text fill="#000000" font-family="sans-serif" font-size="13" lengthAdjust="spacing" textLength="219" x="287" y="552.8623">redirect:/checkout (mit ErrorMessage,</text><text fill="#000000" font-family="sans-serif" font-size="13" lengthAdjust="spacing" textLength="114" x="291" y="569.2139">outOfStockProduct)</text><line style="stroke:#000000;stroke-width:1.0;stroke-dasharray:2.0,2.0;" x1="217.5" x2="1114.5" y1="590.0703" y2="590.0703"/><text fill="#000000" font-family="sans-serif" font-size="11" font-weight="bold" lengthAdjust="spacing" textLength="163" x="222.5" y="601.4893">[Medikament nicht gefunden]</text><polygon fill="#181818" points="281,623.2578,271,627.2578,281,631.2578,277,627.2578" style="stroke:#181818;stroke-width:1.0;"/><line style="stroke:#181818;stroke-width:1.0;" x1="275" x2="535" y1="627.2578" y2="627.2578"/><text fill="#000000" font-family="sans-serif" font-size="13" lengthAdjust="spacing" textLength="219" x="287" y="622.4014">redirect:/checkout (mit ErrorMessage)</text><polygon fill="#181818" points="524,660.6094,534,664.6094,524,668.6094,528,664.6094" style="stroke:#181818;stroke-width:1.0;"/><line style="stroke:#181818;stroke-width:1.0;" x1="270" x2="530" y1="664.6094" y2="664.6094"/><text fill="#000000" font-family="sans-serif" font-size="13" lengthAdjust="spacing" textLength="87" x="277" y="659.7529">GET /checkout</text><polygon fill="#181818" points="1024,690.9609,1034,694.9609,1024,698.9609,1028,694.9609" style="stroke:#181818;stroke-width:1.0;"/><line style="stroke:#181818;stroke-width:1.0;" x1="546" x2="1030" y1="694.9609" y2="694.9609"/><text fill="#000000" font-family="sans-serif" font-size="13" lengthAdjust="spacing" textLength="122" x="553" y="690.1045">getItems(), getPrice()</text><line style="stroke:#181818;stroke-width:1.0;" x1="546" x2="588" y1="725.3125" y2="725.3125"/><line style="stroke:#181818;stroke-width:1.0;" x1="588" x2="588" y1="725.3125" y2="738.3125"/><line style="stroke:#181818;stroke-width:1.0;" x1="547" x2="588" y1="738.3125" y2="738.3125"/><polygon fill="#181818" points="557,734.3125,547,738.3125,557,742.3125,553,738.3125" style="stroke:#181818;stroke-width:1.0;"/><text fill="#000000" font-family="sans-serif" font-size="13" lengthAdjust="spacing" textLength="211" x="553" y="720.4561">calculateCoPayment() etc. f&#252;r Model</text><polygon fill="#181818" points="281,764.6641,271,768.6641,281,772.6641,277,768.6641" style="stroke:#181818;stroke-width:1.0;"/><line style="stroke:#181818;stroke-width:1.0;stroke-dasharray:2.0,2.0;" x1="275" x2="540" y1="768.6641" y2="768.6641"/><text fill="#000000" font-family="sans-serif" font-size="13" lengthAdjust="spacing" textLength="138" x="287" y="763.8076">HTML ("checkout.html")</text><polygon fill="#181818" points="47,795.0156,37,799.0156,47,803.0156,43,799.0156" style="stroke:#181818;stroke-width:1.0;"/><line style="stroke:#181818;stroke-width:1.0;stroke-dasharray:2.0,2.0;" x1="41" x2="269" y1="799.0156" y2="799.0156"/><text fill="#000000" font-family="sans-serif" font-size="13" lengthAdjust="spacing" textLength="210" x="53" y="794.1592">Zeigt aktualisierte Kassenansicht an</text><!--SRC=[ZLHDRzf04BtxLumusMe-xeXo04L9r29eIHgfocLP3ywAPPViZbEHtzPR_rXd_MsWD4X8jjVlpPitRomaMGSJD3czeujsmf6IQYSCmM3Yx2-FRW32mnEk-eUZqTGQSbPhTEFnivc-eDpOdDgd1QwzFOH_nvtrYgll0to6gPA2b3LJGKBRh4INruVG2GeJG8z6lUPuRzxG19u2qjmTWfReFTD33PxoSLN4KHJL5i3bE3GBGxXLAuA9SDAc29zWXYP3G6Kkdir6AxbXrZjbtlFrdzyPca4KK0nkEsQEnNpv0DUoykPQf2d4gvBo0bvpbgPedqH2adeJX5sxeWvHe2sjOCwrCkbaNmchsReSbMarul9Gr7mNV1Pwr9e-Zb8y8eY49WZlRCIMFOKCrxb9qKJ0lxwwnlL6tyBPD9SKRviQIO5hghI32ezRWYEvIt8ejcAbSTIyTK-u7HV0ZkwMyOJ27cM6z62voM_L1EBaVuWVw3ADYYV90V8aJ0hZpyq4ouB1hlfGvDuLhvkqE3j1px5ZOex4t3tkKcuWDDNngnkGcg8p8mvjGnoeZdnxiwgjtHjl5zhJL0RViGI7aePDS27UAe9bBYKlqOp_8iDI56hVEcAuOVf0w-VBt3XdNLM4TmtuOBvUafMRAbDLPQOlgdSIMWeuazEFLqwYKA2t5ftTFBNhjpUTLJ-vqYS3m5aCW_TnSX6k5qv9Z1E8peHH2YrppUHJkn3xq3a3aEGLyBV8mOo_1xg7Rpg_UvXzXNXGgxnweQqU9F_eicYIeSsdSGW_KMKyuGtbGYklq37YY_0UZJ2-dBxv2m00]--></g></svg>