<?xml version="1.0" encoding="us-ascii" standalone="no"?><svg xmlns="http://www.w3.org/2000/svg" xmlns:xlink="http://www.w3.org/1999/xlink" contentStyleType="text/css" height="542px" preserveAspectRatio="none" style="width:1656px;height:542px;background:#FFFFFF;" version="1.1" viewBox="0 0 1656 542" width="1656px" zoomAndPan="magnify"><defs/><g><!--cluster pharmacy--><g id="cluster_pharmacy"><path d="M8.5,6 L76.5,6 A3.75,3.75 0 0 1 79,8.5 L86,29.6094 L459.5,29.6094 A2.5,2.5 0 0 1 462,32.1094 L462,505 A2.5,2.5 0 0 1 459.5,507.5 L8.5,507.5 A2.5,2.5 0 0 1 6,505 L6,8.5 A2.5,2.5 0 0 1 8.5,6 " fill="none" style="stroke:#000000;stroke-width:1.5;"/><line style="stroke:#000000;stroke-width:1.5;" x1="6" x2="86" y1="29.6094" y2="29.6094"/><text fill="#000000" font-family="sans-serif" font-size="14" font-weight="bold" lengthAdjust="spacing" textLength="67" x="10" y="22.5332">pharmacy</text></g><!--cluster inventory--><g id="cluster_inventory"><path d="M32.5,50 L100.5,50 A3.75,3.75 0 0 1 103,52.5 L110,73.6094 L435.5,73.6094 A2.5,2.5 0 0 1 438,76.1094 L438,228.5 A2.5,2.5 0 0 1 435.5,231 L32.5,231 A2.5,2.5 0 0 1 30,228.5 L30,52.5 A2.5,2.5 0 0 1 32.5,50 " fill="none" style="stroke:#000000;stroke-width:1.5;"/><line style="stroke:#000000;stroke-width:1.5;" x1="30" x2="110" y1="73.6094" y2="73.6094"/><text fill="#000000" font-family="sans-serif" font-size="14" font-weight="bold" lengthAdjust="spacing" textLength="67" x="34" y="66.5332">inventory</text></g><!--cluster catalog--><g id="cluster_catalog"><path d="M47.5,372.5 L99.5,372.5 A3.75,3.75 0 0 1 102,375 L109,396.1094 L359.5,396.1094 A2.5,2.5 0 0 1 362,398.6094 L362,481 A2.5,2.5 0 0 1 359.5,483.5 L47.5,483.5 A2.5,2.5 0 0 1 45,481 L45,375 A2.5,2.5 0 0 1 47.5,372.5 " fill="none" style="stroke:#000000;stroke-width:1.5;"/><line style="stroke:#000000;stroke-width:1.5;" x1="45" x2="109" y1="396.1094" y2="396.1094"/><text fill="#000000" font-family="sans-serif" font-size="14" font-weight="bold" lengthAdjust="spacing" textLength="51" x="49" y="389.0332">catalog</text></g><!--cluster org--><g id="cluster_org"><path d="M488.5,281 L513.5,281 A3.75,3.75 0 0 1 516,283.5 L523,304.6094 L1646.5,304.6094 A2.5,2.5 0 0 1 1649,307.1094 L1649,532.5 A2.5,2.5 0 0 1 1646.5,535 L488.5,535 A2.5,2.5 0 0 1 486,532.5 L486,283.5 A2.5,2.5 0 0 1 488.5,281 " fill="none" style="stroke:#000000;stroke-width:1.5;"/><line style="stroke:#000000;stroke-width:1.5;" x1="486" x2="523" y1="304.6094" y2="304.6094"/><text fill="#000000" font-family="sans-serif" font-size="14" font-weight="bold" lengthAdjust="spacing" textLength="24" x="490" y="297.5332">org</text></g><!--cluster salespointframework--><g id="cluster_salespointframework"><path d="M512.5,325 L660.5,325 A3.75,3.75 0 0 1 663,327.5 L670,348.6094 L1622.5,348.6094 A2.5,2.5 0 0 1 1625,351.1094 L1625,508.5 A2.5,2.5 0 0 1 1622.5,511 L512.5,511 A2.5,2.5 0 0 1 510,508.5 L510,327.5 A2.5,2.5 0 0 1 512.5,325 " fill="none" style="stroke:#000000;stroke-width:1.5;"/><line style="stroke:#000000;stroke-width:1.5;" x1="510" x2="670" y1="348.6094" y2="348.6094"/><text fill="#000000" font-family="sans-serif" font-size="14" font-weight="bold" lengthAdjust="spacing" textLength="147" x="514" y="341.5332">salespointframework</text></g><!--cluster core--><g id="cluster_core"><path d="M1453.5,378 L1486.5,378 A3.75,3.75 0 0 1 1489,380.5 L1496,401.6094 L1598.5,401.6094 A2.5,2.5 0 0 1 1601,404.1094 L1601,475.5 A2.5,2.5 0 0 1 1598.5,478 L1453.5,478 A2.5,2.5 0 0 1 1451,475.5 L1451,380.5 A2.5,2.5 0 0 1 1453.5,378 " fill="none" style="stroke:#000000;stroke-width:1.5;"/><line style="stroke:#000000;stroke-width:1.5;" x1="1451" x2="1496" y1="401.6094" y2="401.6094"/><text fill="#000000" font-family="sans-serif" font-size="14" font-weight="bold" lengthAdjust="spacing" textLength="32" x="1455" y="394.5332">core</text></g><!--cluster inventory--><g id="cluster_inventory"><path d="M674.5,369 L742.5,369 A3.75,3.75 0 0 1 745,371.5 L752,392.6094 L1282.5,392.6094 A2.5,2.5 0 0 1 1285,395.1094 L1285,484.5 A2.5,2.5 0 0 1 1282.5,487 L674.5,487 A2.5,2.5 0 0 1 672,484.5 L672,371.5 A2.5,2.5 0 0 1 674.5,369 " fill="none" style="stroke:#000000;stroke-width:1.5;"/><line style="stroke:#000000;stroke-width:1.5;" x1="672" x2="752" y1="392.6094" y2="392.6094"/><text fill="#000000" font-family="sans-serif" font-size="14" font-weight="bold" lengthAdjust="spacing" textLength="67" x="676" y="385.5332">inventory</text></g><!--cluster quantity--><g id="cluster_quantity"><path d="M1311.5,378 L1368.5,378 A3.75,3.75 0 0 1 1371,380.5 L1378,401.6094 L1424.5,401.6094 A2.5,2.5 0 0 1 1427,404.1094 L1427,475.5 A2.5,2.5 0 0 1 1424.5,478 L1311.5,478 A2.5,2.5 0 0 1 1309,475.5 L1309,380.5 A2.5,2.5 0 0 1 1311.5,378 " fill="none" style="stroke:#000000;stroke-width:1.5;"/><line style="stroke:#000000;stroke-width:1.5;" x1="1309" x2="1378" y1="401.6094" y2="401.6094"/><text fill="#000000" font-family="sans-serif" font-size="14" font-weight="bold" lengthAdjust="spacing" textLength="56" x="1313" y="394.5332">quantity</text></g><!--cluster catalog--><g id="cluster_catalog"><path d="M536.5,378 L588.5,378 A3.75,3.75 0 0 1 591,380.5 L598,401.6094 L645.5,401.6094 A2.5,2.5 0 0 1 648,404.1094 L648,475.5 A2.5,2.5 0 0 1 645.5,478 L536.5,478 A2.5,2.5 0 0 1 534,475.5 L534,380.5 A2.5,2.5 0 0 1 536.5,378 " fill="none" style="stroke:#000000;stroke-width:1.5;"/><line style="stroke:#000000;stroke-width:1.5;" x1="534" x2="598" y1="401.6094" y2="401.6094"/><text fill="#000000" font-family="sans-serif" font-size="14" font-weight="bold" lengthAdjust="spacing" textLength="51" x="538" y="394.5332">catalog</text></g><!--class InventoryInitializer--><g id="elem_InventoryInitializer"><rect codeLine="4" fill="#F1F1F1" height="129.1406" id="InventoryInitializer" rx="2.5" ry="2.5" style="stroke:#181818;stroke-width:0.5;" width="375" x="46.5" y="86"/><ellipse cx="173.75" cy="107.3516" fill="#ADD1B2" rx="11" ry="11" style="stroke:#181818;stroke-width:1.0;"/><path d="M176.5156,103.2266 Q176.6719,103.0078 176.8594,102.8984 Q177.0469,102.7891 177.2656,102.7891 Q177.6406,102.7891 177.875,103.0547 Q178.1094,103.3047 178.1094,103.9141 L178.1094,105.3672 Q178.1094,105.9766 177.875,106.2422 Q177.6406,106.5078 177.2656,106.5078 Q176.9219,106.5078 176.7188,106.3047 Q176.5156,106.1172 176.4063,105.6016 Q176.3594,105.2422 176.1719,105.0547 Q175.8438,104.6797 175.2344,104.4609 Q174.625,104.2422 174,104.2422 Q173.2344,104.2422 172.5938,104.5703 Q171.9688,104.8984 171.4688,105.6484 Q170.9844,106.3984 170.9844,107.4297 L170.9844,108.5234 Q170.9844,109.7578 171.875,110.5859 Q172.7656,111.3984 174.3594,111.3984 Q175.2969,111.3984 175.9531,111.1484 Q176.3438,110.9922 176.7656,110.5547 Q177.0313,110.2891 177.1719,110.2109 Q177.3281,110.1328 177.5313,110.1328 Q177.8594,110.1328 178.1094,110.3984 Q178.375,110.6484 178.375,110.9922 Q178.375,111.3359 178.0313,111.7422 Q177.5313,112.3203 176.7344,112.6484 Q175.6563,113.1016 174.3594,113.1016 Q172.8438,113.1016 171.6406,112.4766 Q170.6563,111.9766 169.9688,110.9141 Q169.2813,109.8359 169.2813,108.5547 L169.2813,107.3984 Q169.2813,106.0703 169.8906,104.9297 Q170.5156,103.7734 171.6094,103.1641 Q172.7031,102.5391 173.9375,102.5391 Q174.6719,102.5391 175.3125,102.7109 Q175.9688,102.8672 176.5156,103.2266 Z " fill="#000000"/><text fill="#000000" font-family="sans-serif" font-size="12" font-style="italic" lengthAdjust="spacing" textLength="79" x="210.75" y="103.457">&#171;Component&#187;</text><text fill="#000000" font-family="sans-serif" font-size="14" lengthAdjust="spacing" textLength="112" x="194.25" y="120.627">InventoryInitializer</text><line style="stroke:#181818;stroke-width:0.5;" x1="47.5" x2="420.5" y1="128.7031" y2="128.7031"/><rect fill="none" height="6" style="stroke:#C82930;stroke-width:1.0;" width="6" x="54.5" y="140.0078"/><text fill="#000000" font-family="sans-serif" font-size="14" lengthAdjust="spacing" textLength="312" x="66.5" y="147.2363">inventory: UniqueInventory&lt;UniqueInventoryItem&gt;</text><rect fill="none" height="6" style="stroke:#C82930;stroke-width:1.0;" width="6" x="54.5" y="157.6172"/><text fill="#000000" font-family="sans-serif" font-size="14" lengthAdjust="spacing" textLength="242" x="66.5" y="164.8457">medicationCatalog: MedicationCatalog</text><line style="stroke:#181818;stroke-width:0.5;" x1="47.5" x2="420.5" y1="171.9219" y2="171.9219"/><ellipse cx="57.5" cy="186.2266" fill="#84BE84" rx="3" ry="3" style="stroke:#038048;stroke-width:1.0;"/><text fill="#000000" font-family="sans-serif" font-size="14" lengthAdjust="spacing" textLength="349" x="66.5" y="190.4551">InventoryInitializer(UniqueInventory, MedicationCatalog)</text><ellipse cx="57.5" cy="203.8359" fill="#84BE84" rx="3" ry="3" style="stroke:#038048;stroke-width:1.0;"/><text fill="#000000" font-family="sans-serif" font-size="14" lengthAdjust="spacing" textLength="93" x="66.5" y="208.0645">initialize(): void</text></g><!--class MedicationCatalog--><g id="elem_MedicationCatalog"><rect codeLine="13" fill="#F1F1F1" height="58.7031" id="MedicationCatalog" rx="2.5" ry="2.5" style="stroke:#181818;stroke-width:0.5;" width="150" x="61" y="408.5"/><ellipse cx="76" cy="429.8516" fill="#B4A7E5" rx="11" ry="11" style="stroke:#181818;stroke-width:1.0;"/><path d="M76.9531,426.4922 L76.9531,433.1484 L78.6719,433.1484 Q79.2813,433.1484 79.5469,433.3828 Q79.8125,433.6172 79.8125,434.0078 Q79.8125,434.3828 79.5469,434.6172 Q79.2813,434.8516 78.6719,434.8516 L73.5313,434.8516 Q72.9219,434.8516 72.6563,434.6172 Q72.3906,434.3828 72.3906,433.9922 Q72.3906,433.6172 72.6563,433.3828 Q72.9219,433.1484 73.5313,433.1484 L75.25,433.1484 L75.25,426.4922 L73.5313,426.4922 Q72.9219,426.4922 72.6563,426.2578 Q72.3906,426.0234 72.3906,425.6328 Q72.3906,425.2578 72.6563,425.0234 Q72.9219,424.7891 73.5313,424.7891 L78.6719,424.7891 Q79.2813,424.7891 79.5469,425.0234 Q79.8125,425.2578 79.8125,425.6328 Q79.8125,426.0234 79.5469,426.2578 Q79.2813,426.4922 78.6719,426.4922 L76.9531,426.4922 Z " fill="#000000"/><text fill="#000000" font-family="sans-serif" font-size="12" font-style="italic" lengthAdjust="spacing" textLength="73" x="112.5" y="425.957">&#171;Repository&#187;</text><text fill="#000000" font-family="sans-serif" font-size="14" font-style="italic" lengthAdjust="spacing" textLength="118" x="90" y="443.127">MedicationCatalog</text><line style="stroke:#181818;stroke-width:0.5;" x1="62" x2="210" y1="451.2031" y2="451.2031"/><line style="stroke:#181818;stroke-width:0.5;" x1="62" x2="210" y1="459.2031" y2="459.2031"/></g><!--class Medication--><g id="elem_Medication"><rect codeLine="14" fill="#F1F1F1" height="48" id="Medication" rx="2.5" ry="2.5" style="stroke:#181818;stroke-width:0.5;" width="100" x="246" y="414"/><ellipse cx="261" cy="430" fill="#ADD1B2" rx="11" ry="11" style="stroke:#181818;stroke-width:1.0;"/><path d="M263.7656,425.875 Q263.9219,425.6563 264.1094,425.5469 Q264.2969,425.4375 264.5156,425.4375 Q264.8906,425.4375 265.125,425.7031 Q265.3594,425.9531 265.3594,426.5625 L265.3594,428.0156 Q265.3594,428.625 265.125,428.8906 Q264.8906,429.1563 264.5156,429.1563 Q264.1719,429.1563 263.9688,428.9531 Q263.7656,428.7656 263.6563,428.25 Q263.6094,427.8906 263.4219,427.7031 Q263.0938,427.3281 262.4844,427.1094 Q261.875,426.8906 261.25,426.8906 Q260.4844,426.8906 259.8438,427.2188 Q259.2188,427.5469 258.7188,428.2969 Q258.2344,429.0469 258.2344,430.0781 L258.2344,431.1719 Q258.2344,432.4063 259.125,433.2344 Q260.0156,434.0469 261.6094,434.0469 Q262.5469,434.0469 263.2031,433.7969 Q263.5938,433.6406 264.0156,433.2031 Q264.2813,432.9375 264.4219,432.8594 Q264.5781,432.7813 264.7813,432.7813 Q265.1094,432.7813 265.3594,433.0469 Q265.625,433.2969 265.625,433.6406 Q265.625,433.9844 265.2813,434.3906 Q264.7813,434.9688 263.9844,435.2969 Q262.9063,435.75 261.6094,435.75 Q260.0938,435.75 258.8906,435.125 Q257.9063,434.625 257.2188,433.5625 Q256.5313,432.4844 256.5313,431.2031 L256.5313,430.0469 Q256.5313,428.7188 257.1406,427.5781 Q257.7656,426.4219 258.8594,425.8125 Q259.9531,425.1875 261.1875,425.1875 Q261.9219,425.1875 262.5625,425.3594 Q263.2188,425.5156 263.7656,425.875 Z " fill="#000000"/><text fill="#000000" font-family="sans-serif" font-size="14" lengthAdjust="spacing" textLength="68" x="275" y="435.7285">Medication</text><line style="stroke:#181818;stroke-width:0.5;" x1="247" x2="345" y1="446" y2="446"/><line style="stroke:#181818;stroke-width:0.5;" x1="247" x2="345" y1="454" y2="454"/></g><!--class DataInitializer--><g id="elem_DataInitializer"><rect codeLine="20" fill="#F1F1F1" height="48" id="DataInitializer" rx="2.5" ry="2.5" style="stroke:#181818;stroke-width:0.5;" width="118" x="1467" y="414"/><ellipse cx="1482" cy="430" fill="#B4A7E5" rx="11" ry="11" style="stroke:#181818;stroke-width:1.0;"/><path d="M1482.9531,426.6406 L1482.9531,433.2969 L1484.6719,433.2969 Q1485.2813,433.2969 1485.5469,433.5313 Q1485.8125,433.7656 1485.8125,434.1563 Q1485.8125,434.5313 1485.5469,434.7656 Q1485.2813,435 1484.6719,435 L1479.5313,435 Q1478.9219,435 1478.6563,434.7656 Q1478.3906,434.5313 1478.3906,434.1406 Q1478.3906,433.7656 1478.6563,433.5313 Q1478.9219,433.2969 1479.5313,433.2969 L1481.25,433.2969 L1481.25,426.6406 L1479.5313,426.6406 Q1478.9219,426.6406 1478.6563,426.4063 Q1478.3906,426.1719 1478.3906,425.7813 Q1478.3906,425.4063 1478.6563,425.1719 Q1478.9219,424.9375 1479.5313,424.9375 L1484.6719,424.9375 Q1485.2813,424.9375 1485.5469,425.1719 Q1485.8125,425.4063 1485.8125,425.7813 Q1485.8125,426.1719 1485.5469,426.4063 Q1485.2813,426.6406 1484.6719,426.6406 L1482.9531,426.6406 Z " fill="#000000"/><text fill="#000000" font-family="sans-serif" font-size="14" font-style="italic" lengthAdjust="spacing" textLength="86" x="1496" y="435.7285">DataInitializer</text><line style="stroke:#181818;stroke-width:0.5;" x1="1468" x2="1584" y1="446" y2="446"/><line style="stroke:#181818;stroke-width:0.5;" x1="1468" x2="1584" y1="454" y2="454"/></g><!--class UniqueInventory--><g id="elem_UniqueInventory"><rect codeLine="23" fill="#F1F1F1" height="48" id="UniqueInventory" rx="2.5" ry="2.5" style="stroke:#181818;stroke-width:0.5;" width="271" x="688.5" y="414"/><ellipse cx="703.5" cy="430" fill="#B4A7E5" rx="11" ry="11" style="stroke:#181818;stroke-width:1.0;"/><path d="M704.4531,426.6406 L704.4531,433.2969 L706.1719,433.2969 Q706.7813,433.2969 707.0469,433.5313 Q707.3125,433.7656 707.3125,434.1563 Q707.3125,434.5313 707.0469,434.7656 Q706.7813,435 706.1719,435 L701.0313,435 Q700.4219,435 700.1563,434.7656 Q699.8906,434.5313 699.8906,434.1406 Q699.8906,433.7656 700.1563,433.5313 Q700.4219,433.2969 701.0313,433.2969 L702.75,433.2969 L702.75,426.6406 L701.0313,426.6406 Q700.4219,426.6406 700.1563,426.4063 Q699.8906,426.1719 699.8906,425.7813 Q699.8906,425.4063 700.1563,425.1719 Q700.4219,424.9375 701.0313,424.9375 L706.1719,424.9375 Q706.7813,424.9375 707.0469,425.1719 Q707.3125,425.4063 707.3125,425.7813 Q707.3125,426.1719 707.0469,426.4063 Q706.7813,426.6406 706.1719,426.6406 L704.4531,426.6406 Z " fill="#000000"/><text fill="#000000" font-family="sans-serif" font-size="14" font-style="italic" lengthAdjust="spacing" textLength="103" x="717.5" y="435.7285">UniqueInventory</text><rect fill="#FFFFFF" height="17.0938" style="stroke:#181818;stroke-width:1.0;stroke-dasharray:2.0,2.0;" width="134" x="828.5" y="411"/><text fill="#000000" font-family="sans-serif" font-size="12" font-style="italic" lengthAdjust="spacing" textLength="132" x="829.5" y="424.457">T extends InventoryItem</text><line style="stroke:#181818;stroke-width:0.5;" x1="689.5" x2="958.5" y1="446" y2="446"/><line style="stroke:#181818;stroke-width:0.5;" x1="689.5" x2="958.5" y1="454" y2="454"/></g><!--class UniqueInventoryItem--><g id="elem_UniqueInventoryItem"><rect codeLine="24" fill="#F1F1F1" height="65.6094" id="UniqueInventoryItem" rx="2.5" ry="2.5" style="stroke:#181818;stroke-width:0.5;" width="274" x="995" y="405"/><ellipse cx="1063.75" cy="421" fill="#ADD1B2" rx="11" ry="11" style="stroke:#181818;stroke-width:1.0;"/><path d="M1066.5156,416.875 Q1066.6719,416.6563 1066.8594,416.5469 Q1067.0469,416.4375 1067.2656,416.4375 Q1067.6406,416.4375 1067.875,416.7031 Q1068.1094,416.9531 1068.1094,417.5625 L1068.1094,419.0156 Q1068.1094,419.625 1067.875,419.8906 Q1067.6406,420.1563 1067.2656,420.1563 Q1066.9219,420.1563 1066.7188,419.9531 Q1066.5156,419.7656 1066.4063,419.25 Q1066.3594,418.8906 1066.1719,418.7031 Q1065.8438,418.3281 1065.2344,418.1094 Q1064.625,417.8906 1064,417.8906 Q1063.2344,417.8906 1062.5938,418.2188 Q1061.9688,418.5469 1061.4688,419.2969 Q1060.9844,420.0469 1060.9844,421.0781 L1060.9844,422.1719 Q1060.9844,423.4063 1061.875,424.2344 Q1062.7656,425.0469 1064.3594,425.0469 Q1065.2969,425.0469 1065.9531,424.7969 Q1066.3438,424.6406 1066.7656,424.2031 Q1067.0313,423.9375 1067.1719,423.8594 Q1067.3281,423.7813 1067.5313,423.7813 Q1067.8594,423.7813 1068.1094,424.0469 Q1068.375,424.2969 1068.375,424.6406 Q1068.375,424.9844 1068.0313,425.3906 Q1067.5313,425.9688 1066.7344,426.2969 Q1065.6563,426.75 1064.3594,426.75 Q1062.8438,426.75 1061.6406,426.125 Q1060.6563,425.625 1059.9688,424.5625 Q1059.2813,423.4844 1059.2813,422.2031 L1059.2813,421.0469 Q1059.2813,419.7188 1059.8906,418.5781 Q1060.5156,417.4219 1061.6094,416.8125 Q1062.7031,416.1875 1063.9375,416.1875 Q1064.6719,416.1875 1065.3125,416.3594 Q1065.9688,416.5156 1066.5156,416.875 Z " fill="#000000"/><text fill="#000000" font-family="sans-serif" font-size="14" lengthAdjust="spacing" textLength="128" x="1084.25" y="426.7285">UniqueInventoryItem</text><line style="stroke:#181818;stroke-width:0.5;" x1="996" x2="1268" y1="437" y2="437"/><line style="stroke:#181818;stroke-width:0.5;" x1="996" x2="1268" y1="445" y2="445"/><ellipse cx="1006" cy="459.3047" fill="#84BE84" rx="3" ry="3" style="stroke:#038048;stroke-width:1.0;"/><text fill="#000000" font-family="sans-serif" font-size="14" lengthAdjust="spacing" textLength="248" x="1015" y="463.5332">UniqueInventoryItem(Product, Quantity)</text></g><!--class Quantity--><g id="elem_Quantity"><rect codeLine="29" fill="#F1F1F1" height="48" id="Quantity" rx="2.5" ry="2.5" style="stroke:#181818;stroke-width:0.5;" width="85" x="1325.5" y="414"/><ellipse cx="1340.5" cy="430" fill="#B4A7E5" rx="11" ry="11" style="stroke:#181818;stroke-width:1.0;"/><path d="M1341.4531,426.6406 L1341.4531,433.2969 L1343.1719,433.2969 Q1343.7813,433.2969 1344.0469,433.5313 Q1344.3125,433.7656 1344.3125,434.1563 Q1344.3125,434.5313 1344.0469,434.7656 Q1343.7813,435 1343.1719,435 L1338.0313,435 Q1337.4219,435 1337.1563,434.7656 Q1336.8906,434.5313 1336.8906,434.1406 Q1336.8906,433.7656 1337.1563,433.5313 Q1337.4219,433.2969 1338.0313,433.2969 L1339.75,433.2969 L1339.75,426.6406 L1338.0313,426.6406 Q1337.4219,426.6406 1337.1563,426.4063 Q1336.8906,426.1719 1336.8906,425.7813 Q1336.8906,425.4063 1337.1563,425.1719 Q1337.4219,424.9375 1338.0313,424.9375 L1343.1719,424.9375 Q1343.7813,424.9375 1344.0469,425.1719 Q1344.3125,425.4063 1344.3125,425.7813 Q1344.3125,426.1719 1344.0469,426.4063 Q1343.7813,426.6406 1343.1719,426.6406 L1341.4531,426.6406 Z " fill="#000000"/><text fill="#000000" font-family="sans-serif" font-size="14" font-style="italic" lengthAdjust="spacing" textLength="53" x="1354.5" y="435.7285">Quantity</text><line style="stroke:#181818;stroke-width:0.5;" x1="1326.5" x2="1409.5" y1="446" y2="446"/><line style="stroke:#181818;stroke-width:0.5;" x1="1326.5" x2="1409.5" y1="454" y2="454"/></g><!--class Product--><g id="elem_Product"><rect codeLine="32" fill="#F1F1F1" height="48" id="Product" rx="2.5" ry="2.5" style="stroke:#181818;stroke-width:0.5;" width="81" x="550.5" y="414"/><ellipse cx="565.5" cy="430" fill="#ADD1B2" rx="11" ry="11" style="stroke:#181818;stroke-width:1.0;"/><path d="M568.2656,425.875 Q568.4219,425.6563 568.6094,425.5469 Q568.7969,425.4375 569.0156,425.4375 Q569.3906,425.4375 569.625,425.7031 Q569.8594,425.9531 569.8594,426.5625 L569.8594,428.0156 Q569.8594,428.625 569.625,428.8906 Q569.3906,429.1563 569.0156,429.1563 Q568.6719,429.1563 568.4688,428.9531 Q568.2656,428.7656 568.1563,428.25 Q568.1094,427.8906 567.9219,427.7031 Q567.5938,427.3281 566.9844,427.1094 Q566.375,426.8906 565.75,426.8906 Q564.9844,426.8906 564.3438,427.2188 Q563.7188,427.5469 563.2188,428.2969 Q562.7344,429.0469 562.7344,430.0781 L562.7344,431.1719 Q562.7344,432.4063 563.625,433.2344 Q564.5156,434.0469 566.1094,434.0469 Q567.0469,434.0469 567.7031,433.7969 Q568.0938,433.6406 568.5156,433.2031 Q568.7813,432.9375 568.9219,432.8594 Q569.0781,432.7813 569.2813,432.7813 Q569.6094,432.7813 569.8594,433.0469 Q570.125,433.2969 570.125,433.6406 Q570.125,433.9844 569.7813,434.3906 Q569.2813,434.9688 568.4844,435.2969 Q567.4063,435.75 566.1094,435.75 Q564.5938,435.75 563.3906,435.125 Q562.4063,434.625 561.7188,433.5625 Q561.0313,432.4844 561.0313,431.2031 L561.0313,430.0469 Q561.0313,428.7188 561.6406,427.5781 Q562.2656,426.4219 563.3594,425.8125 Q564.4531,425.1875 565.6875,425.1875 Q566.4219,425.1875 567.0625,425.3594 Q567.7188,425.5156 568.2656,425.875 Z " fill="#000000"/><text fill="#000000" font-family="sans-serif" font-size="14" lengthAdjust="spacing" textLength="49" x="579.5" y="435.7285">Product</text><line style="stroke:#181818;stroke-width:0.5;" x1="551.5" x2="630.5" y1="446" y2="446"/><line style="stroke:#181818;stroke-width:0.5;" x1="551.5" x2="630.5" y1="454" y2="454"/></g><!--reverse link DataInitializer to InventoryInitializer--><g id="link_DataInitializer_InventoryInitializer"><path codeLine="37" d="M1512.771,396.848 C1500.171,360.798 1476.72,308.67 1427,273 C1383.36,241.7 1362.08,255.17 1309,247 C999.97,199.43 637.04,173.3 421.79,160.87 " fill="none" id="DataInitializer-backto-InventoryInitializer" style="stroke:#181818;stroke-width:1.0;stroke-dasharray:7.0,7.0;"/><polygon fill="none" points="1518.71,413.84,1518.435,394.8683,1507.107,398.8276,1518.71,413.84" style="stroke:#181818;stroke-width:1.0;"/></g><!--link InventoryInitializer to UniqueInventory--><g id="link_InventoryInitializer_UniqueInventory"><path codeLine="38" d="M421.74,187.01 C495.39,205.85 578.68,233.51 648,273 C714.41,310.83 771.9629,373.7757 801.5829,409.2257 " fill="none" id="InventoryInitializer-to-UniqueInventory" style="stroke:#181818;stroke-width:1.0;stroke-dasharray:7.0,7.0;"/><polygon fill="#181818" points="805.43,413.83,802.7289,404.3588,802.2241,409.9931,796.5898,409.4883,805.43,413.83" style="stroke:#181818;stroke-width:1.0;"/><polygon fill="#000000" points="636.3157,258.7006,629.9925,251.5965,627.0245,256.6699,636.3157,258.7006" style="stroke:#000000;stroke-width:1.0;"/><text fill="#000000" font-family="sans-serif" font-size="13" lengthAdjust="spacing" textLength="28" x="641" y="261.4951">uses</text></g><!--link InventoryInitializer to MedicationCatalog--><g id="link_InventoryInitializer_MedicationCatalog"><path codeLine="39" d="M212.13,215.22 C191.43,275.53 163.2381,357.6551 147.8281,402.5451 " fill="none" id="InventoryInitializer-to-MedicationCatalog" style="stroke:#181818;stroke-width:1.0;stroke-dasharray:7.0,7.0;"/><polygon fill="#181818" points="145.88,408.22,152.5855,401.0063,147.5034,403.4909,145.0189,398.4089,145.88,408.22" style="stroke:#181818;stroke-width:1.0;"/><polygon fill="#000000" points="203.3767,260.9049,209.093,253.304,203.5336,251.3957,203.3767,260.9049" style="stroke:#000000;stroke-width:1.0;"/><text fill="#000000" font-family="sans-serif" font-size="13" lengthAdjust="spacing" textLength="28" x="214" y="261.4951">uses</text></g><!--link InventoryInitializer to UniqueInventoryItem--><g id="link_InventoryInitializer_UniqueInventoryItem"><path codeLine="40" d="M421.83,168.41 C609.52,187.74 883.26,223.26 977,273 C1036,304.31 1081.7686,361.7173 1108.0286,399.8773 " fill="none" id="InventoryInitializer-to-UniqueInventoryItem" style="stroke:#181818;stroke-width:1.0;stroke-dasharray:7.0,7.0;"/><polygon fill="#181818" points="1111.43,404.82,1109.6231,395.1383,1108.5955,400.7011,1103.0328,399.6735,1111.43,404.82" style="stroke:#181818;stroke-width:1.0;"/><polygon fill="#000000" points="966.7377,257.7739,959.1065,252.0981,957.2278,257.6676,966.7377,257.7739" style="stroke:#000000;stroke-width:1.0;"/><text fill="#000000" font-family="sans-serif" font-size="13" lengthAdjust="spacing" textLength="43" x="971" y="261.4951">creates</text></g><!--link InventoryInitializer to Medication--><g id="link_InventoryInitializer_Medication"><path codeLine="41" d="M247.84,215.22 C261.51,278.16 280.4073,365.1765 289.6973,407.9765 " fill="none" id="InventoryInitializer-to-Medication" style="stroke:#181818;stroke-width:1.0;stroke-dasharray:7.0,7.0;"/><polygon fill="#181818" points="290.97,413.84,292.9699,404.1963,289.9094,408.9538,285.152,405.8933,290.97,413.84" style="stroke:#181818;stroke-width:1.0;"/><polygon fill="#000000" points="264.061,261.0619,265.0136,251.5992,259.2696,252.8465,264.061,261.0619" style="stroke:#000000;stroke-width:1.0;"/><text fill="#000000" font-family="sans-serif" font-size="13" lengthAdjust="spacing" textLength="28" x="272" y="261.4951">uses</text></g><!--link InventoryInitializer to Quantity--><g id="link_InventoryInitializer_Quantity"><path codeLine="42" d="M421.58,152.28 C685.52,156.84 1149.47,178.54 1285,273 C1333.43,306.76 1353.8744,371.5205 1362.2244,408.0905 " fill="none" id="InventoryInitializer-to-Quantity" style="stroke:#181818;stroke-width:1.0;stroke-dasharray:7.0,7.0;"/><polygon fill="#181818" points="1363.56,413.94,1365.4562,404.2754,1362.447,409.0655,1357.657,406.0562,1363.56,413.94" style="stroke:#181818;stroke-width:1.0;"/><polygon fill="#000000" points="1267.8248,257.4879,1259.8679,252.2783,1258.3254,257.9502,1267.8248,257.4879" style="stroke:#000000;stroke-width:1.0;"/><text fill="#000000" font-family="sans-serif" font-size="13" lengthAdjust="spacing" textLength="28" x="1272" y="261.4951">uses</text></g><!--SRC=[hLFBJiCm4BpdAvPRAy0V45MMKE4GYKUXvGCiPrki9dRgE8K2_NUIDeaT9qZbuLlitPdPcSrPZ4iX4UPNjpVpsKDqlm2bLoHd2UQP4j8iDKlnLUbr46IChzaA8NjXEcLyHuJSeZHAx-0ZWFBmXEKvHCrj98KHB17lg64ocQeqKx9yeRGkhyubj20XF4knAR3jdtZVaS6KEfqfne8p8vISCiCIjGhXphzgoyy7TOqyYei-mjY146tdQ1p2LeduyBWFzWFky6D_FMnf9UebuzXdACrvmapbeb90gMEbBQqOMefl4ggPcYgkD3fEMm7N9QtZGJs2s-e7s-ttOre0lXcKiHjz9whZC0DfEl2bkmC5evbMSS7D1JmMJ1fXTZQE_O3mJLqrgBk1SFgiMPsmhEYQtyOSzBUV36uyAJBoIPqVYrI14D_ya-581yjMUwv124MEET0V8VjBI_fB-YlSKnGV5Y44hf6P_nJ-PyNDCf5cSInYy0K0]--></g></svg>